<?xml version="1.0" standalone="no"?>
<!DOCTYPE svg PUBLIC "-//W3C//DTD SVG 20010904//EN"
 "http://www.w3.org/TR/2001/REC-SVG-20010904/DTD/svg10.dtd">
<svg version="1.0" xmlns="http://www.w3.org/2000/svg"
 width="2048.000000pt" height="2048.000000pt" viewBox="0 0 2048.000000 2048.000000"
 preserveAspectRatio="xMidYMid meet">

<g transform="translate(0.000000,2048.000000) scale(0.100000,-0.100000)"
fill="#000000" stroke="none">
<path d="M5110 18948 c0 -19 34 -67 59 -84 l21 -15 -16 43 c-16 41 -38 68 -56
68 -4 0 -8 -6 -8 -12z"/>
<path d="M5060 18603 c1 -60 -17 -156 -28 -149 -16 9 -39 -21 -48 -64 -8 -39
-13 -45 -34 -42 -27 3 -40 -12 -40 -48 1 -35 18 -54 68 -70 28 -9 47 -22 55
-39 15 -32 47 -38 82 -15 33 22 43 12 51 -51 7 -55 24 -75 65 -75 34 0 78 -62
100 -143 20 -75 74 -149 219 -298 151 -156 236 -260 223 -273 -7 -6 10 -45 39
-87 11 -17 18 -50 20 -100 3 -72 4 -74 29 -74 17 0 36 -13 59 -38 18 -21 47
-45 64 -53 17 -8 23 -12 13 -9 -10 3 -37 -4 -60 -15 -22 -11 -46 -20 -53 -20
-6 0 -17 -7 -24 -15 -7 -8 -23 -15 -35 -15 -33 0 -52 -26 -37 -50 10 -17 7
-21 -34 -39 -25 -12 -55 -32 -66 -46 -19 -25 -66 -51 -103 -57 -23 -4 -32 -46
-16 -76 12 -22 3 -124 -10 -116 -5 3 -9 16 -9 30 0 13 -8 32 -17 42 -10 9 -24
30 -31 45 -18 42 -36 28 -42 -34 -5 -59 2 -54 -82 -58 -10 -1 -18 -7 -18 -13
0 -7 -14 -21 -30 -30 -37 -21 -39 -51 -4 -83 39 -37 62 -40 89 -15 l23 22 12
-24 c7 -12 26 -37 43 -55 28 -30 29 -35 23 -92 -7 -59 -6 -60 40 -128 25 -37
48 -70 50 -72 1 -2 18 -6 36 -10 27 -5 38 -16 58 -56 25 -48 26 -49 98 -66 40
-10 107 -21 148 -24 54 -5 72 -11 65 -18 -13 -13 -15 -47 -2 -47 4 0 19 8 32
19 20 15 33 17 72 11 26 -4 50 -9 53 -12 3 -4 -1 -19 -10 -35 -10 -20 -11 -34
-5 -44 10 -15 9 -16 72 66 35 44 67 58 103 45 24 -9 24 -11 9 -27 -15 -14 -15
-18 -3 -27 11 -9 -3 -27 -73 -91 -48 -44 -87 -88 -88 -97 -1 -20 12 -23 40 -8
10 6 19 9 19 6 0 -12 -45 -79 -75 -112 -31 -33 -34 -42 -34 -96 1 -39 4 -58
12 -55 13 4 29 57 22 74 -3 8 9 15 33 19 28 4 44 15 66 44 24 32 33 37 47 30
25 -14 76 -12 85 2 5 8 10 6 14 -7 4 -11 18 -22 31 -25 23 -6 23 -7 -11 -25
-19 -11 -47 -24 -62 -30 -15 -5 -67 -48 -116 -95 -83 -80 -191 -176 -216 -192
-17 -12 -26 -9 -26 7 0 32 -30 12 -53 -35 -13 -27 -45 -68 -71 -91 -52 -46
-59 -69 -20 -69 29 0 104 54 104 75 0 11 40 47 78 69 7 4 -2 -21 -20 -57 -24
-47 -73 -106 -183 -221 -82 -86 -151 -160 -153 -164 -1 -4 -31 -39 -67 -76
-36 -37 -65 -72 -65 -78 0 -5 -13 -20 -28 -33 -16 -13 -42 -43 -58 -67 -16
-23 -43 -55 -61 -71 -17 -15 -62 -69 -100 -120 -37 -51 -70 -94 -74 -97 -3 -3
-14 -20 -23 -37 -9 -18 -30 -40 -46 -48 -17 -9 -30 -20 -30 -25 0 -5 -15 -25
-34 -44 -33 -35 -86 -110 -86 -121 0 -3 -15 -21 -32 -40 -18 -18 -46 -60 -63
-92 -16 -32 -47 -78 -69 -103 -44 -51 -116 -164 -147 -230 -49 -102 -67 -133
-149 -253 -40 -57 -48 -64 -63 -52 -9 7 -17 22 -17 34 0 24 -21 51 -41 51 -8
0 -10 -11 -6 -34 4 -25 1 -36 -9 -40 -8 -3 -14 -12 -14 -20 0 -7 -7 -27 -15
-42 -17 -32 -12 -99 10 -124 26 -31 26 -57 0 -95 -14 -21 -25 -45 -25 -54 0
-19 -47 -92 -66 -104 -7 -4 -16 -29 -19 -55 -3 -26 -12 -58 -19 -72 -8 -14
-19 -42 -25 -62 -7 -20 -19 -42 -27 -48 -7 -7 -14 -24 -14 -37 0 -14 -8 -38
-17 -53 -13 -23 -20 -27 -35 -19 -10 5 -18 17 -18 25 0 9 -7 14 -17 12 -14 -3
-19 -18 -24 -74 -4 -39 -10 -81 -14 -93 -4 -14 -2 -23 9 -27 18 -7 22 -59 6
-69 -5 -3 -10 -18 -10 -33 0 -15 -9 -38 -20 -52 -11 -14 -20 -33 -20 -42 0
-10 -9 -27 -21 -39 -19 -19 -20 -22 -4 -39 18 -20 11 -44 -19 -70 -9 -7 -16
-22 -16 -34 0 -12 -6 -31 -14 -41 -8 -11 -12 -24 -9 -31 2 -6 -3 -14 -13 -18
-14 -5 -16 -16 -10 -67 4 -39 2 -68 -6 -82 -6 -12 -13 -46 -15 -76 -3 -30 -11
-67 -19 -83 -8 -16 -15 -50 -15 -76 -1 -26 -7 -57 -15 -69 -17 -28 -18 -50 -1
-56 9 -3 9 -9 1 -28 -12 -25 -44 -130 -44 -143 0 -4 4 -5 9 -1 5 3 3 -8 -5
-24 -8 -16 -17 -70 -19 -123 -3 -57 -15 -128 -31 -186 -20 -69 -23 -96 -15
-106 8 -9 8 -22 1 -42 -10 -31 -19 -155 -19 -269 0 -109 7 -346 11 -383 3 -23
1 -31 -8 -28 -20 8 -21 -26 -3 -64 9 -19 20 -55 24 -80 6 -43 6 -44 -10 -23
-9 13 -28 49 -42 80 -25 58 -25 58 -8 110 15 44 16 57 5 82 -13 31 -37 40 -57
20 -7 -7 -12 -3 -17 15 -8 32 -23 33 -37 4 l-10 -23 5 23 c2 12 -2 48 -10 80
-7 31 -13 74 -14 94 0 20 -5 40 -11 43 -6 4 -8 22 -6 40 2 17 -2 50 -9 71 -7
21 -18 61 -24 87 -5 26 -20 61 -32 78 -15 20 -23 45 -23 72 0 23 -4 52 -8 65
-7 18 -5 22 13 22 11 0 23 7 26 15 4 8 10 13 15 10 4 -3 4 -18 -2 -32 -13 -36
-5 -53 26 -53 23 0 24 2 13 20 -10 16 -10 24 0 40 14 24 16 99 2 120 -9 13
-13 12 -28 -8 l-18 -24 -31 26 c-17 14 -35 26 -40 26 -23 0 -44 41 -58 115 -9
48 -22 87 -35 100 -11 12 -20 28 -20 36 0 8 -5 31 -11 52 -8 32 -13 36 -25 26
-12 -10 -13 -5 -8 34 5 35 2 56 -14 90 -12 25 -24 57 -28 71 -3 14 -10 29 -15
32 -10 6 -12 45 -3 68 5 12 10 14 19 6 7 -6 15 -7 18 -3 7 13 -12 145 -25 171
-9 17 -9 44 2 115 8 51 13 115 12 143 -3 51 -3 52 31 58 l34 6 0 128 c0 156
16 348 32 382 10 21 11 12 6 -50 -3 -41 -6 -84 -8 -95 -1 -11 5 -21 14 -23 18
-3 39 72 39 139 0 23 7 47 15 56 19 18 11 108 -11 134 -15 17 -20 109 -6 109
5 0 7 -15 6 -32 -1 -18 3 -39 9 -46 17 -21 25 10 26 100 1 51 7 91 19 120 25
57 52 195 52 262 0 36 4 56 14 59 7 3 17 27 21 53 3 25 10 56 15 68 4 11 18
55 30 96 12 41 26 84 31 95 4 11 18 43 29 72 12 28 20 59 18 69 -1 10 -25 29
-52 42 -46 23 -50 23 -62 7 -7 -9 -16 -36 -19 -58 -4 -23 -14 -55 -23 -72 -8
-16 -23 -55 -32 -85 -9 -30 -20 -55 -26 -55 -27 -1 -36 -19 -31 -60 4 -29 0
-58 -13 -94 -11 -28 -20 -64 -20 -81 0 -27 -15 -48 -27 -37 -2 3 3 38 13 77
14 60 15 73 4 80 -33 21 -78 -64 -95 -180 -4 -25 -13 -67 -20 -95 -8 -27 -21
-79 -31 -115 -26 -98 -45 -162 -55 -189 -12 -30 -59 -259 -59 -288 0 -16 -6
-23 -19 -23 -23 0 -29 -15 -25 -55 2 -16 5 -68 7 -115 3 -58 8 -85 17 -85 13
0 36 58 47 125 7 40 9 35 13 -50 5 -101 0 -220 -20 -415 -7 -66 -15 -158 -19
-205 l-7 -85 -8 65 c-5 35 -15 75 -23 87 -12 18 -14 37 -9 81 10 83 19 368 11
360 -4 -4 -9 -48 -11 -99 -3 -51 -9 -99 -13 -108 -5 -9 -15 -59 -21 -111 -10
-77 -10 -105 0 -145 8 -32 12 -99 11 -185 -2 -84 2 -153 9 -180 7 -25 14 -72
15 -105 2 -33 22 -130 45 -215 23 -85 45 -186 50 -225 4 -38 17 -121 29 -182
13 -62 20 -116 17 -121 -3 -5 1 -30 9 -55 8 -26 13 -47 11 -47 -2 0 -16 12
-33 28 -16 15 -45 41 -64 58 -19 16 -47 46 -64 65 -16 19 -46 48 -65 63 -19
16 -68 58 -108 95 -41 36 -90 77 -110 91 -21 14 -67 46 -103 73 -37 26 -70 47
-73 47 -4 0 -46 33 -93 73 -46 39 -102 83 -124 97 -21 14 -56 38 -78 53 -21
15 -50 29 -63 31 -13 1 -29 6 -36 10 -7 4 -16 5 -21 2 -21 -13 -102 -9 -118 6
-10 9 -29 19 -43 23 -14 4 -52 25 -84 48 -46 32 -70 41 -105 42 -60 3 -50 -1
-121 51 -36 27 -68 61 -78 83 l-17 36 -105 5 c-58 3 -118 11 -134 18 -51 22
-71 2 -38 -36 28 -32 184 -163 207 -173 31 -14 50 -29 126 -100 42 -39 80 -67
93 -67 28 1 166 -51 253 -96 43 -21 92 -37 124 -40 28 -3 81 -19 117 -36 35
-16 71 -30 79 -30 9 0 36 -11 62 -24 25 -14 66 -34 91 -45 51 -22 98 -50 118
-68 7 -7 16 -13 20 -13 4 0 21 -12 37 -26 17 -15 68 -52 115 -84 47 -31 105
-74 130 -94 25 -21 54 -45 65 -54 11 -9 21 -15 23 -14 2 2 13 -10 25 -25 26
-35 66 -73 141 -138 32 -27 65 -57 74 -65 21 -21 39 -67 46 -125 6 -49 6 -51
-28 -72 -26 -17 -35 -31 -40 -60 -13 -81 -8 -340 10 -498 4 -33 8 -80 8 -105
1 -33 5 -45 16 -45 12 0 14 12 12 63 -3 38 0 62 6 62 6 0 14 21 18 48 3 26 17
67 29 92 52 102 68 160 46 160 -6 0 -13 21 -17 48 -4 26 -14 57 -22 70 -11 18
-12 25 -2 37 20 24 25 18 39 -47 14 -73 59 -209 72 -222 5 -6 9 -19 9 -29 0
-10 6 -31 14 -45 26 -52 44 -128 45 -192 0 -59 3 -67 29 -90 35 -30 60 -72 40
-68 -7 2 -14 -7 -16 -19 -2 -17 3 -24 21 -28 49 -13 39 -103 -13 -130 -39 -20
-42 -29 -26 -62 8 -15 23 -57 34 -93 14 -51 23 -65 38 -65 16 0 19 6 16 40 -4
47 17 165 29 165 5 0 6 -13 3 -29 -4 -16 -1 -32 5 -35 6 -4 11 -25 11 -47 0
-33 3 -40 18 -37 9 2 18 14 20 26 3 22 5 22 23 -10 10 -18 37 -71 60 -118 40
-83 41 -86 29 -135 -16 -66 -70 -147 -70 -105 0 6 -5 10 -11 10 -8 0 -10 -14
-6 -39 6 -45 37 -121 49 -121 11 0 10 -58 -2 -65 -5 -3 -8 -38 -7 -77 1 -50
-2 -73 -10 -75 -9 -3 -13 -32 -13 -96 0 -124 -11 -228 -23 -224 -12 4 -66 154
-67 185 0 55 -75 282 -97 295 -10 6 -8 233 3 310 7 52 -8 65 -28 22 -9 -19
-14 -22 -24 -14 -11 9 -15 7 -21 -7 -4 -10 -2 -19 5 -22 21 -7 2 -22 -28 -22
-24 0 -30 -6 -40 -35 -6 -19 -9 -39 -6 -44 4 -5 2 -12 -4 -16 -5 -3 -10 -14
-10 -23 0 -13 2 -13 14 3 13 18 14 18 19 -1 4 -10 9 -30 11 -44 3 -14 10 -43
15 -66 6 -22 13 -101 16 -175 3 -74 9 -156 14 -184 11 -58 63 -193 122 -315
23 -47 45 -94 50 -105 24 -62 44 -215 27 -215 -12 0 -9 -48 6 -109 8 -31 22
-99 32 -151 9 -52 28 -133 41 -180 14 -47 28 -106 33 -131 5 -26 13 -55 19
-65 5 -11 32 -65 59 -121 42 -85 149 -255 245 -388 12 -17 40 -55 61 -85 99
-136 175 -208 266 -252 19 -9 81 -57 138 -107 56 -50 106 -91 111 -91 4 0 22
-19 39 -42 17 -24 41 -54 54 -68 44 -47 69 -89 97 -167 16 -43 38 -97 49 -120
15 -28 21 -57 20 -88 -2 -32 2 -51 12 -59 18 -14 40 -73 40 -109 0 -16 13 -42
33 -64 53 -62 97 -121 97 -131 0 -5 19 -26 42 -47 78 -67 90 -79 113 -110 32
-41 105 -190 105 -212 0 -11 4 -23 10 -29 5 -5 12 -36 15 -69 7 -60 36 -152
62 -190 7 -11 13 -30 13 -43 0 -13 16 -56 36 -95 33 -66 36 -80 39 -169 1 -56
7 -104 14 -112 7 -8 9 -25 6 -39 -4 -14 -2 -50 5 -80 13 -63 14 -134 5 -262
-4 -49 -8 -121 -10 -160 -1 -39 -12 -96 -24 -129 -11 -33 -21 -78 -21 -101 0
-22 -4 -45 -9 -50 -5 -6 -23 -48 -39 -95 -52 -150 -164 -305 -242 -337 -19 -8
-43 -22 -52 -31 -33 -29 -17 -122 31 -181 36 -43 62 -38 128 25 26 25 59 57
73 70 14 13 38 50 55 81 16 32 37 69 46 83 61 93 99 195 99 268 0 23 6 53 14
65 15 24 25 94 27 204 1 43 11 99 25 140 13 41 26 112 31 178 10 141 7 406 -6
465 -6 25 -13 61 -15 80 -2 19 -13 63 -25 98 -12 34 -23 88 -25 120 -5 75 -23
124 -74 198 -85 126 -104 165 -97 200 8 47 88 191 134 242 l38 44 40 -20 c22
-11 45 -28 53 -37 16 -19 83 -55 103 -55 12 0 196 -126 226 -155 11 -11 10
-25 -10 -90 -20 -69 -27 -80 -63 -103 -23 -15 -54 -32 -71 -38 -68 -24 -68
-107 -1 -120 30 -5 41 -1 73 25 21 17 41 31 46 31 22 0 148 127 168 169 11 24
24 40 27 35 14 -20 75 -57 115 -69 119 -37 257 -123 257 -160 0 -22 42 -70 52
-60 9 9 38 -43 32 -58 -7 -20 23 -44 38 -29 9 9 9 23 1 54 -15 56 -9 70 25 55
14 -7 36 -22 48 -34 12 -12 41 -27 65 -33 56 -14 246 -99 260 -117 6 -7 17
-13 23 -13 6 0 35 -16 63 -35 29 -19 57 -35 62 -35 6 0 43 -15 83 -34 78 -36
131 -57 217 -87 30 -11 66 -27 80 -36 35 -24 100 -53 117 -53 8 0 25 -6 37
-14 12 -8 58 -22 102 -31 214 -46 288 -38 375 41 14 13 57 40 95 61 56 31 71
44 73 64 3 29 -36 69 -69 69 -10 0 -22 6 -26 13 -7 11 -75 35 -175 63 -10 3
-26 0 -37 -5 -15 -9 -42 -4 -120 22 -55 19 -109 41 -119 50 -10 9 -24 17 -30
17 -31 0 -234 84 -306 128 -46 27 -100 55 -120 62 -23 7 -67 41 -111 85 -52
51 -89 78 -122 90 -81 30 -169 74 -209 105 -20 17 -43 30 -51 30 -26 0 -166
60 -234 100 -67 40 -183 129 -177 136 2 2 48 9 102 15 72 8 101 8 109 0 6 -6
17 -11 25 -11 22 0 103 -41 132 -66 14 -12 48 -29 75 -39 28 -10 57 -24 65
-30 8 -6 44 -26 80 -45 36 -18 76 -41 90 -51 43 -29 261 -154 355 -204 50 -26
99 -56 111 -66 13 -12 54 -25 110 -35 73 -13 94 -21 119 -45 17 -16 39 -29 49
-29 29 0 85 -31 91 -50 3 -10 31 -35 62 -56 30 -20 63 -49 71 -64 14 -24 25
-29 91 -38 82 -12 145 -9 228 13 34 8 55 10 59 3 3 -5 12 -7 20 -4 8 3 14 1
14 -4 0 -14 79 -50 86 -39 3 5 -2 9 -10 9 -9 0 -16 4 -16 9 0 5 -24 19 -52 31
-29 13 -47 25 -40 27 7 3 20 1 30 -3 25 -11 52 -13 52 -2 0 5 -14 17 -32 26
-17 9 -40 26 -52 37 -29 28 -61 44 -136 67 -88 27 -114 41 -194 107 -39 31
-79 61 -90 68 -31 18 7 15 254 -21 58 -8 150 -22 205 -30 55 -8 149 -17 209
-21 127 -7 155 -11 216 -24 49 -11 63 -14 215 -37 55 -9 110 -22 123 -30 29
-19 38 -13 52 34 6 20 13 43 16 50 5 17 72 -10 90 -37 13 -18 36 -29 109 -51
43 -12 107 -5 215 25 30 8 73 18 94 20 70 9 106 68 49 81 -16 3 -35 8 -43 11
-8 2 -40 7 -69 9 -30 3 -56 6 -58 8 -2 2 12 14 32 27 19 13 33 29 32 34 -2 6
-54 11 -123 11 -65 1 -156 4 -201 8 -90 6 -113 2 -113 -21 0 -8 -4 -12 -9 -9
-5 3 -7 15 -4 25 8 31 -24 73 -89 116 -34 22 -66 42 -72 44 -6 2 -38 16 -71
31 -62 29 -167 60 -203 60 -18 0 -19 2 -7 37 7 21 18 39 25 41 6 2 15 15 20
28 8 21 14 23 57 18 37 -4 60 0 103 19 30 13 66 27 80 30 32 9 80 52 107 97
18 29 20 42 13 74 -9 41 -26 58 -80 82 -46 20 -75 15 -200 -39 -163 -69 -354
-107 -555 -111 -137 -3 -130 -4 -365 65 -41 12 -100 36 -130 52 -30 17 -68 37
-85 46 -16 8 -50 29 -75 47 -60 42 -133 63 -184 52 -26 -6 -43 -4 -53 4 -8 6
-31 11 -51 10 -32 -1 -41 3 -56 29 -21 36 -53 51 -79 37 -17 -9 -72 5 -87 21
-3 4 -23 18 -45 33 -22 15 -63 51 -92 80 l-52 53 48 -3 c37 -3 50 0 54 12 7
18 -17 46 -41 46 -31 0 -237 108 -265 139 -15 17 -27 34 -27 39 0 9 -17 27
-209 217 -83 82 -151 154 -151 160 0 6 -25 35 -55 65 -55 54 -68 74 -41 64 8
-3 16 4 19 17 8 30 0 40 -26 34 -39 -10 -74 39 -82 114 -4 36 -10 73 -14 83
-8 22 11 157 33 236 16 59 27 78 83 145 94 114 116 150 147 245 42 131 112
264 212 402 45 63 95 140 110 170 15 30 33 59 41 63 23 14 54 87 52 120 -4 45
10 129 30 182 10 25 16 59 13 75 -9 61 -106 115 -152 83 -11 -8 -29 -31 -39
-52 -11 -20 -26 -43 -35 -50 -9 -7 -18 -29 -21 -50 -4 -20 -13 -49 -22 -65
-12 -22 -16 -54 -15 -130 2 -93 0 -105 -26 -153 -35 -67 -212 -255 -282 -300
-30 -20 -92 -74 -137 -119 -46 -46 -88 -84 -96 -84 -18 0 -134 50 -187 81 -25
15 -55 30 -68 33 -12 4 -26 16 -32 26 -8 15 -3 25 24 54 47 47 81 63 207 96
60 15 125 37 145 49 28 17 52 21 119 21 81 0 84 1 109 31 14 17 26 39 26 50 0
33 -27 87 -49 98 -11 7 -32 28 -46 48 -23 35 -24 42 -18 124 7 103 -6 164 -47
209 -24 26 -35 31 -88 34 -60 4 -62 3 -92 -31 -17 -19 -33 -48 -37 -64 -3 -16
-10 -32 -14 -35 -5 -3 -9 -36 -9 -74 0 -81 -25 -159 -69 -210 l-30 -35 -54 29
c-37 19 -62 27 -78 23 -24 -7 -69 25 -69 48 0 24 -62 103 -89 115 -40 16 -59
8 -150 -61 -44 -32 -82 -59 -85 -59 -3 0 -6 16 -6 36 0 19 -5 44 -10 54 -7 13
-7 42 -1 87 5 37 15 113 21 168 14 118 39 196 90 285 43 74 130 185 167 215
14 11 40 35 58 52 34 34 80 57 100 49 7 -2 19 -20 28 -39 13 -27 25 -36 52
-41 19 -4 40 -4 45 -1 18 11 10 64 -15 107 -14 24 -30 55 -36 70 -10 27 -26
34 -136 64 -7 2 -13 12 -13 22 0 23 -14 35 -58 50 -42 14 -74 -4 -92 -51 -7
-18 -22 -57 -33 -87 -12 -30 -29 -66 -39 -79 -10 -13 -18 -37 -18 -52 0 -19
-18 -52 -55 -100 -51 -66 -91 -138 -109 -196 -9 -28 -42 -39 -64 -21 -15 13
-67 38 -77 38 -2 0 -24 -42 -50 -92 -56 -111 -66 -124 -91 -110 -11 6 -40 8
-66 5 -34 -4 -55 -1 -72 11 -38 25 -116 48 -140 42 -24 -6 -24 0 -25 144 -1
41 -5 111 -11 155 -5 44 -12 114 -15 155 -2 41 -14 120 -24 175 -11 55 -22
138 -26 185 -9 125 -34 280 -52 322 -17 40 -48 57 -66 39 -7 -7 -13 -58 -15
-125 -3 -96 -1 -120 15 -158 15 -32 18 -50 11 -68 -5 -14 -9 -107 -8 -208 1
-177 2 -185 25 -223 14 -21 25 -48 25 -60 0 -93 -170 338 -176 445 -1 31 -10
59 -23 77 -12 16 -21 33 -21 38 0 6 -10 27 -22 48 -16 28 -21 53 -20 98 1 77
6 117 14 130 3 6 9 30 13 55 9 60 52 205 76 255 11 22 19 51 18 65 0 14 2 39
6 55 10 52 10 68 -1 72 -20 7 -131 -384 -149 -528 -4 -30 -9 -56 -12 -59 -8
-7 6 145 18 200 22 103 29 137 34 167 3 18 17 68 31 113 29 89 27 118 -5 98
-26 -16 -34 -7 -21 26 5 15 7 32 4 37 -5 9 -87 -145 -104 -196 -4 -11 -15 -37
-24 -58 -9 -21 -16 -48 -17 -60 0 -17 -3 -14 -13 13 -7 19 -12 55 -11 80 5
120 4 114 21 99 15 -13 16 -7 12 69 -4 75 -18 115 -34 100 -3 -4 -12 -28 -20
-55 -13 -47 -14 -47 -9 -8 3 22 8 96 11 166 5 103 4 128 -8 140 -8 8 -15 30
-16 49 0 19 -9 68 -18 109 -13 56 -15 76 -6 79 18 6 15 69 -3 80 -9 4 -17 17
-19 28 -6 27 -17 76 -23 97 -5 18 -6 18 -24 1 -21 -19 -25 -64 -7 -82 8 -8 8
-36 -1 -112 -9 -71 -9 -105 -2 -114 6 -7 8 -15 5 -19 -7 -7 -7 -231 0 -272 10
-53 16 -147 21 -300 4 -153 17 -272 33 -315 13 -36 15 -147 3 -154 -6 -4 -27
8 -48 27 -21 18 -56 47 -78 63 -62 45 -77 57 -103 82 -28 27 -63 42 -98 42
-22 0 -24 4 -24 44 0 36 3 44 18 42 14 -1 17 6 14 42 -1 27 2 42 9 42 15 0 6
114 -10 134 -6 7 -14 45 -17 84 -4 40 -11 72 -15 72 -5 0 -9 7 -9 15 0 8 -4
15 -10 15 -6 0 -9 -71 -7 -192 1 -106 0 -213 -3 -238 l-5 -45 -8 50 c-14 91
-49 250 -57 260 -4 6 -8 26 -8 46 -1 32 1 36 18 32 11 -3 20 -4 20 -2 0 2 -5
31 -10 64 -6 33 -11 109 -11 168 -1 77 -4 107 -12 104 -13 -4 -16 -165 -5
-254 5 -39 4 -52 -5 -50 -8 1 -13 -16 -16 -48 l-3 -50 -12 39 c-11 39 -39 67
-52 53 -10 -10 22 -108 57 -178 38 -75 44 -149 13 -149 -12 0 -15 6 -10 25 5
18 1 27 -14 35 -11 6 -25 8 -30 5 -12 -7 -18 21 -24 115 -4 53 -10 78 -22 87
-8 6 -19 28 -24 47 -6 29 -4 41 11 61 13 15 19 38 18 62 -1 21 2 73 6 115 7
67 5 78 -9 84 -21 8 -21 63 1 108 13 29 14 40 5 61 -13 27 -10 59 14 182 17
90 17 93 -1 93 -13 0 -12 7 6 42 12 23 31 55 42 70 17 23 18 30 7 43 -7 9 -19
14 -25 11 -16 -6 10 70 30 91 18 17 19 28 4 55 -13 24 20 141 51 181 10 13 22
36 25 50 6 22 4 27 -11 28 -16 0 -15 2 4 9 20 9 22 14 16 47 -3 21 -15 44 -25
52 -37 27 -10 158 39 188 26 15 59 118 44 135 -6 8 -8 27 -3 48 6 29 11 34 29
32 16 -2 25 4 32 23 13 35 13 78 -2 93 -8 8 -7 23 7 59 10 26 24 53 31 58 7 6
24 44 37 85 21 64 28 75 47 75 31 1 33 11 16 69 -12 41 -12 52 0 81 7 19 24
41 36 50 14 11 19 19 11 22 -8 3 -9 12 -1 34 8 23 16 29 39 29 36 0 36 -9 -1
-85 -16 -34 -39 -95 -49 -136 -11 -41 -27 -101 -35 -134 -9 -33 -19 -76 -22
-95 -3 -19 -12 -45 -20 -58 -8 -12 -12 -28 -8 -34 4 -6 3 -8 -2 -5 -6 3 -16
-15 -22 -41 -7 -26 -17 -60 -23 -77 -6 -16 -17 -53 -24 -82 -7 -28 -15 -56
-19 -61 -7 -11 -42 -266 -50 -362 -8 -88 -33 -286 -47 -366 -10 -59 -13 -63
-23 -43 -6 12 -15 20 -21 18 -13 -5 -10 -109 5 -154 6 -19 13 -77 15 -130 4
-76 2 -95 -9 -95 -26 0 -26 -30 0 -98 15 -38 30 -102 34 -148 4 -45 11 -87 14
-93 11 -17 28 -1 23 20 -3 10 0 20 6 22 6 2 11 93 13 257 3 240 21 471 44 545
5 17 12 53 15 80 29 230 41 289 67 315 23 24 25 31 17 71 -19 100 -7 158 54
260 10 18 9 23 -4 32 -15 9 -15 16 2 81 10 39 19 81 19 94 0 12 9 40 19 60 24
46 119 276 132 317 5 17 13 66 18 110 7 71 17 98 85 237 46 94 76 167 74 181
-1 13 4 34 13 48 16 25 48 91 93 192 24 55 76 130 76 110 0 -5 -5 -14 -12 -21
-9 -9 -9 -12 -1 -12 7 0 19 10 27 22 l15 21 11 -29 12 -29 19 50 c10 28 19 56
19 63 0 7 4 20 9 30 32 64 62 142 63 167 2 18 25 61 60 110 32 44 68 95 80
113 13 18 40 55 61 82 20 27 37 52 37 55 0 13 56 75 68 75 6 0 12 4 12 10 0 5
15 30 33 54 26 37 36 44 55 40 13 -3 30 0 38 6 7 7 18 9 23 5 14 -8 51 12 51
28 0 7 11 26 25 42 18 21 23 24 18 10 -3 -11 -12 -27 -18 -35 -15 -18 -38
-120 -29 -129 3 -3 11 -6 17 -6 7 0 10 -10 8 -25 -16 -95 10 -104 39 -13 12
37 35 82 51 100 16 19 29 39 29 45 0 5 9 8 20 5 22 -6 22 -4 25 73 1 25 8 58
14 75 21 50 84 149 109 169 13 10 21 24 18 32 -3 7 5 28 17 46 23 33 50 42 75
24 8 -6 25 5 52 35 l40 44 -2 -34 c-2 -20 2 -36 9 -38 13 -5 25 31 27 78 1 20
24 50 88 116 47 48 128 133 179 187 187 198 197 206 227 195 62 -25 137 -15
137 17 0 15 7 19 36 19 21 0 45 8 55 17 11 9 33 20 49 23 17 4 40 18 53 31 13
14 34 24 51 24 16 0 39 8 52 19 13 10 53 32 88 49 47 23 69 29 82 22 32 -17
57 -11 80 21 21 30 23 30 83 25 33 -3 104 -8 156 -12 52 -3 98 -8 101 -10 10
-6 120 39 149 61 20 16 126 53 172 61 34 6 39 4 48 -20 5 -14 17 -27 27 -27
46 -4 138 3 155 12 12 7 24 5 40 -5 27 -17 75 -24 218 -31 134 -7 214 -15 229
-24 9 -6 8 -23 -4 -66 -20 -79 -43 -121 -100 -180 -26 -27 -54 -63 -62 -80 -9
-16 -27 -38 -42 -49 -14 -11 -65 -58 -113 -103 -89 -85 -93 -87 -178 -84 -53
3 -116 -21 -124 -46 -7 -25 10 -94 26 -104 20 -13 37 -11 107 17 131 51 212
97 324 184 33 25 66 50 75 55 67 41 144 96 169 121 17 16 50 48 74 70 87 82
169 174 188 211 10 21 35 53 55 72 l36 35 30 -22 c40 -30 50 -28 103 18 60 53
86 51 150 -8 23 -22 38 -27 95 -28 43 -2 84 -10 115 -24 40 -18 47 -25 47 -49
0 -56 46 -47 51 9 4 30 9 36 39 45 26 8 40 20 53 48 9 20 21 37 27 37 14 0 80
-33 80 -39 0 -10 -20 -36 -20 -27 0 12 -59 -66 -60 -78 0 -5 -12 -24 -26 -43
-32 -42 -25 -73 16 -73 31 0 71 42 85 90 4 14 16 44 27 67 l20 43 34 -26 c43
-33 65 -27 58 18 -3 18 -1 44 4 58 l9 24 14 -24 c7 -14 16 -45 19 -70 4 -36 9
-45 25 -45 28 0 42 70 28 137 -11 53 -3 71 32 81 11 3 44 12 72 20 l53 15 32
-30 c44 -40 122 -76 183 -83 28 -4 65 -10 84 -15 49 -13 81 -3 131 41 43 38
61 43 123 39 15 -1 35 4 43 11 12 10 24 3 68 -37 60 -56 89 -99 107 -164 14
-50 13 -88 -3 -108 -14 -16 -6 -24 16 -16 37 14 33 109 -10 205 -15 32 -37 65
-50 74 -13 8 -24 24 -24 34 0 10 -7 35 -15 54 -31 74 -9 138 39 116 19 -9 29
-7 50 6 20 14 37 16 74 11 85 -12 216 -27 293 -34 42 -4 82 -12 90 -18 8 -6
33 -14 57 -17 34 -4 44 -2 52 14 6 10 25 20 43 23 76 12 127 14 132 5 8 -12
62 -12 70 1 3 6 19 10 34 10 36 0 68 27 77 63 6 25 4 27 -25 27 -24 0 -31 4
-31 19 0 11 -6 21 -12 23 -16 6 108 48 140 48 13 0 21 -4 18 -8 -9 -15 14 -82
29 -82 7 0 15 12 17 28 3 27 3 27 31 -15 15 -24 27 -50 27 -58 0 -9 5 -25 11
-36 11 -22 45 -18 65 9 9 13 18 11 63 -13 28 -16 50 -33 48 -39 -2 -6 -35 -12
-72 -14 -76 -3 -95 -13 -95 -47 0 -35 -20 -47 -175 -104 -16 -6 -64 -20 -105
-32 -41 -11 -104 -31 -140 -44 -75 -27 -193 -62 -231 -70 -20 -3 -28 -13 -32
-35 -5 -22 -24 -43 -77 -81 -38 -28 -70 -55 -70 -60 0 -5 -15 -16 -32 -25 -39
-20 -48 -31 -48 -61 0 -16 6 -23 20 -23 11 0 20 7 20 15 0 8 6 15 13 15 7 0
46 17 87 38 105 53 295 111 382 117 29 2 64 8 78 13 14 5 84 21 156 36 72 14
165 35 205 46 145 40 182 43 251 20 58 -19 64 -19 75 -4 7 9 22 18 35 19 13 1
29 3 36 4 6 0 12 7 12 15 0 21 11 25 77 32 32 4 72 13 90 21 36 17 62 14 158
-20 39 -13 133 -44 210 -68 77 -23 154 -50 170 -59 17 -9 41 -19 55 -22 14 -3
64 -17 111 -31 47 -14 105 -28 130 -31 61 -7 77 -11 85 -19 4 -4 14 -7 22 -7
8 0 51 -22 96 -49 45 -26 117 -66 161 -88 249 -123 378 -202 407 -249 4 -6 49
-45 100 -87 109 -90 139 -125 158 -187 7 -25 18 -51 23 -57 5 -7 6 -24 3 -39
-10 -37 13 -84 41 -84 14 0 40 -21 74 -59 57 -65 99 -82 153 -61 21 8 34 7 54
-5 15 -8 39 -20 55 -27 15 -7 27 -18 27 -25 0 -16 24 -17 50 -3 16 8 28 2 72
-37 29 -25 59 -55 66 -65 16 -22 31 -23 39 -2 4 10 -8 30 -33 55 -29 30 -41
53 -50 97 -7 31 -16 66 -20 77 -6 16 -3 15 13 -5 21 -24 21 -25 42 -6 21 19
21 19 22 0 8 -138 14 -164 38 -150 5 4 13 27 17 51 3 25 9 45 13 45 4 0 20
-14 37 -31 41 -43 60 -52 84 -39 25 14 25 37 0 75 -24 36 -26 90 -5 99 22 8
98 -20 110 -41 33 -58 125 -127 125 -93 0 23 -70 119 -110 151 -34 28 -40 37
-35 59 4 14 12 32 20 40 7 9 16 55 20 108 l7 93 -53 53 c-30 29 -62 65 -72 79
-11 16 -27 27 -41 27 -28 0 -51 31 -58 78 l-5 33 38 -43 c57 -65 51 -41 -16
63 -5 9 -23 40 -39 70 -39 74 -127 181 -143 175 -8 -3 -15 5 -19 19 -3 14 -10
25 -15 25 -5 0 -9 6 -9 13 0 8 -18 33 -39 58 -22 24 -56 62 -75 84 -39 46 -51
44 -34 -6 6 -19 14 -65 17 -104 4 -50 10 -69 19 -67 20 4 52 -17 52 -35 0 -28
23 -93 33 -93 6 0 8 28 4 76 -7 82 -4 84 44 30 102 -117 190 -256 162 -256
-11 0 -14 -7 -11 -25 5 -22 2 -24 -25 -22 -25 2 -31 -2 -38 -25 -5 -19 -3 -31
7 -39 16 -13 19 -54 4 -44 -5 3 -10 1 -10 -4 0 -6 5 -11 10 -11 22 0 25 -2 32
-21 4 -10 18 -23 31 -28 36 -14 46 -32 38 -71 l-7 -34 -22 22 c-12 12 -24 22
-27 22 -9 0 -5 -39 5 -45 6 -3 10 -1 10 6 0 7 11 2 25 -11 34 -32 30 -66 -7
-62 -36 4 -40 -7 -18 -53 21 -43 25 -82 11 -104 -6 -10 -11 -4 -16 20 -11 59
-16 69 -30 69 -7 0 -15 -6 -18 -12 -7 -22 -37 11 -37 41 0 22 -9 31 -55 55
-38 19 -57 35 -61 52 -6 23 -28 33 -37 17 -2 -5 1 -53 8 -108 7 -55 8 -104 4
-109 -5 -6 -11 4 -15 22 -8 39 -63 88 -109 96 -30 6 -59 36 -35 36 22 0 8 40
-20 57 -32 19 -40 52 -16 72 8 7 17 23 20 38 7 24 8 24 25 8 22 -19 37 -5 23
22 -5 10 -7 23 -5 30 2 6 -2 22 -10 35 -8 13 -20 48 -27 78 -18 80 -18 80 -33
80 -10 0 -12 -17 -9 -72 l5 -73 -31 30 c-16 17 -37 36 -46 43 -12 10 -16 31
-16 88 0 55 -4 76 -14 80 -9 3 -19 33 -26 74 -13 76 -32 112 -50 94 -11 -11
-2 -96 17 -158 3 -11 1 -16 -5 -12 -5 3 -13 18 -17 33 -9 40 -73 133 -91 133
-7 0 -14 6 -14 13 0 7 -22 35 -50 62 -27 27 -50 56 -50 63 0 8 -11 23 -25 34
-30 24 -31 39 -5 63 28 25 22 55 -15 76 -46 27 -59 24 -52 -11 4 -16 2 -32 -4
-36 -6 -3 -8 -13 -5 -20 7 -17 0 -13 -62 31 -58 42 -67 62 -71 153 -1 26 -5
33 -18 30 -15 -3 -17 -12 -15 -47 2 -24 -1 -41 -6 -40 -5 2 -39 18 -75 34 -58
26 -66 33 -67 58 0 15 4 27 9 27 5 0 19 16 31 35 18 29 25 33 36 24 45 -37 21
64 -27 116 -22 23 -39 49 -39 57 0 22 -30 45 -77 57 -47 13 -73 34 -73 60 0
10 -16 39 -36 64 -30 39 -42 47 -69 47 -45 0 -106 63 -151 158 -20 39 -44 76
-54 82 -10 5 -32 32 -49 60 -18 29 -38 50 -48 50 -17 0 -57 36 -143 124 -35
37 -58 52 -117 80 -34 17 -63 51 -63 76 1 36 34 57 103 64 65 6 69 5 122 -28
78 -50 88 -69 73 -140 -14 -63 -9 -77 36 -110 25 -19 47 -23 202 -42 l51 -6 7
32 c11 59 -18 93 -99 117 -23 6 -31 15 -33 36 -4 29 -59 88 -224 241 -69 64
-84 83 -80 102 5 26 -13 54 -34 54 -8 0 -14 -7 -14 -15 0 -17 -16 -20 -25 -5
-3 6 1 13 9 16 21 8 20 51 -1 62 -10 6 -16 21 -15 41 1 30 -11 38 -43 31 -5
-1 -27 -2 -48 -2 -24 1 -40 -4 -44 -14 -11 -30 -93 -7 -93 27 0 5 -8 9 -18 9
-25 0 -123 122 -131 163 -5 25 -13 33 -32 35 -14 2 -31 -4 -39 -12 -23 -28
-28 -17 -28 60 1 75 1 75 37 102 20 14 51 39 69 54 35 30 94 58 121 58 17 0
124 61 159 90 9 8 34 23 55 32 20 10 37 24 37 33 0 18 -23 19 -50 3 -16 -10
-23 -9 -44 11 -20 19 -28 21 -45 12 -12 -7 -21 -18 -21 -26 0 -15 -36 -31 -59
-26 -22 4 -99 -20 -112 -35 -6 -7 -17 -10 -25 -7 -7 3 -43 -10 -78 -27 -38
-19 -71 -30 -81 -26 -10 3 -52 0 -94 -8 -91 -18 -259 -28 -266 -16 -11 18
-102 21 -173 5 -39 -9 -76 -14 -82 -10 -13 8 -13 48 -1 60 6 6 35 58 65 117
38 71 56 118 56 142 0 20 -4 36 -9 36 -19 0 -54 -63 -85 -152 -10 -25 -24 -52
-32 -58 -7 -7 -14 -19 -14 -27 0 -7 -8 -16 -17 -20 -10 -3 -35 -22 -55 -41
l-37 -35 -36 17 c-44 21 -72 16 -111 -22 -43 -41 -111 -86 -169 -111 -41 -18
-54 -20 -76 -10 -24 9 -29 18 -35 66 -10 82 1 214 19 224 19 11 42 182 33 243
-6 36 -11 46 -26 46 -22 0 -33 -28 -32 -86 1 -24 -5 -56 -13 -71 -8 -15 -15
-36 -15 -46 0 -24 -88 -197 -100 -197 -29 0 -82 46 -108 91 -27 48 -16 205 16
249 20 27 52 124 52 158 0 19 -38 5 -71 -27 -29 -29 -59 -98 -59 -136 0 -20
-5 -25 -25 -25 -23 0 -24 -2 -19 -43 5 -32 2 -46 -10 -56 -17 -15 -22 -71 -6
-71 15 0 12 -30 -2 -31 -28 -3 -40 4 -84 46 -48 47 -94 61 -94 29 0 -14 -8
-15 -52 -9 -29 4 -75 8 -103 10 -53 3 -155 47 -155 68 0 6 -11 21 -24 32 -89
76 -135 127 -156 170 -26 54 -36 111 -22 129 15 18 12 77 -4 108 -24 47 -79
29 -59 -20 15 -33 6 -70 -38 -147 -21 -37 -25 -40 -63 -37 -22 2 -83 -8 -135
-21 -52 -14 -111 -28 -133 -31 -44 -8 -106 -36 -106 -48 0 -4 -5 -8 -11 -8
-27 0 -179 -139 -179 -163 0 -12 -99 -77 -117 -77 -5 0 -19 -9 -31 -20 -11
-11 -34 -28 -50 -37 -52 -32 -117 -76 -122 -83 -13 -17 -107 -74 -168 -101
-37 -17 -75 -35 -84 -40 -21 -10 -62 6 -93 37 -32 32 -154 97 -170 90 -8 -3
-15 -16 -15 -30 l0 -24 -102 4 c-57 2 -136 11 -177 20 -63 14 -88 14 -170 4
-53 -6 -118 -13 -146 -15 -27 -2 -89 -6 -136 -10 -77 -6 -91 -4 -132 16 -26
13 -49 31 -53 41 -3 10 -9 18 -14 18 -10 0 -8 -26 5 -91 l7 -37 -77 -42 c-84
-46 -115 -48 -185 -9 -45 26 -113 15 -118 -18 -2 -15 4 -22 25 -26 16 -3 42
-18 58 -33 23 -21 43 -29 90 -33 l60 -6 -48 -40 c-26 -22 -65 -46 -86 -55 -21
-8 -45 -21 -54 -28 -11 -9 -27 -11 -47 -7 -44 10 -53 -20 -15 -51 27 -21 27
-22 8 -33 -18 -9 -53 -8 -94 5 -21 6 -162 17 -219 18 -87 0 -260 -22 -291 -38
-17 -8 -46 -18 -65 -22 -18 -3 -50 -12 -71 -19 -27 -10 -41 -10 -55 -2 -22 14
-54 -13 -45 -37 8 -20 30 -20 118 0 38 9 77 13 85 10 8 -3 37 0 65 6 42 10 52
9 59 -3 6 -9 27 -14 61 -14 62 0 86 -22 56 -52 -14 -14 -32 -18 -84 -16 -57 2
-69 -1 -89 -21 -13 -12 -28 -34 -33 -49 -8 -21 -22 -30 -68 -42 -140 -40 -158
-49 -158 -79 -1 -38 -31 -59 -72 -51 -28 5 -33 3 -38 -18 -9 -33 -75 -98 -75
-73 0 35 -59 105 -105 125 -53 23 -140 41 -203 41 -30 0 -61 9 -99 30 -30 17
-61 30 -69 30 -8 0 -24 21 -36 48 -17 37 -22 67 -22 144 -1 97 -1 97 -36 133
-19 20 -45 38 -58 42 -13 3 -48 37 -78 75 -31 38 -75 82 -97 98 -59 41 -77 61
-77 82 0 10 -7 18 -17 18 -19 0 -76 81 -78 109 -2 28 -20 51 -102 135 -111
114 -141 182 -149 337 -6 138 -12 179 -25 179 -5 0 -31 21 -57 48 -26 26 -70
66 -99 90 -44 36 -57 42 -97 42 -44 0 -46 -1 -46 -27z m924 -1497 c36 -48 13
-61 -25 -15 -32 38 -35 49 -15 49 7 0 25 -15 40 -34z m141 -156 c3 -6 -1 -7
-9 -4 -18 7 -21 14 -7 14 6 0 13 -4 16 -10z m39 -97 c-2 -16 -1 -33 3 -38 13
-16 55 -41 93 -54 41 -14 108 -64 73 -55 -11 3 -24 0 -28 -6 -10 -15 14 -60
32 -60 8 0 27 -7 43 -15 16 -8 71 -17 127 -21 123 -7 139 -20 129 -103 -8 -64
3 -81 50 -81 18 0 36 -5 40 -11 10 -18 -64 -75 -126 -98 -63 -23 -141 -94
-123 -112 7 -7 24 -1 59 23 27 18 51 35 54 39 3 3 23 13 45 23 22 10 43 20 47
23 11 6 48 -73 48 -101 0 -36 -58 -62 -129 -58 -30 1 -59 6 -65 12 -16 16 -55
11 -75 -9 -25 -25 -105 -38 -126 -21 -11 9 -19 10 -28 1 -11 -8 -23 -3 -54 24
-32 27 -50 35 -81 35 -41 0 -106 -22 -133 -46 -16 -14 -123 -23 -135 -11 -4 4
-8 19 -9 34 -3 36 -71 267 -91 304 -17 34 -17 39 -3 39 24 0 120 115 132 158
13 49 60 96 167 167 36 23 66 43 67 44 1 0 0 -11 -3 -26z m77 -753 c5 0 9 -11
9 -25 0 -17 -6 -25 -17 -26 -18 -1 -34 -3 -86 -13 -26 -5 -26 -5 10 27 21 17
40 36 42 40 2 5 10 6 18 3 8 -3 19 -6 24 -6z m-136 -30 c-31 -33 -90 -45 -64
-13 14 16 64 42 83 43 6 0 -3 -13 -19 -30z m4911 -291 c18 -20 18 -20 -11 -13
-39 9 -43 13 -25 24 8 6 15 10 16 10 0 0 9 -9 20 -21z m-4474 -181 c-27 -28
-30 -29 -25 -10 6 23 43 56 52 46 3 -2 -9 -19 -27 -36z m6071 -104 c15 -3 27
-10 27 -14 0 -7 -102 -31 -108 -25 -1 1 3 14 9 29 8 17 18 25 28 22 9 -3 28
-8 44 -12z m-6199 -89 c-7 -17 -85 -77 -92 -70 -4 4 14 22 68 64 30 25 31 25
24 6z m7852 -80 c81 -41 119 -74 157 -135 67 -109 109 -147 149 -137 9 3 22
-1 29 -9 6 -8 18 -14 26 -14 26 0 73 -34 73 -52 0 -14 -8 -17 -37 -15 -36 2
-38 0 -40 -28 -4 -40 24 -70 70 -79 l37 -7 0 -59 c0 -33 -4 -60 -9 -60 -15 0
-71 57 -71 72 0 8 -27 41 -60 72 -33 32 -60 61 -60 65 0 11 -88 51 -102 46 -7
-3 -53 29 -103 70 -62 51 -93 71 -100 64 -10 -11 -11 -10 79 -79 25 -19 45
-39 46 -43 0 -5 -21 10 -47 31 -27 22 -63 47 -80 56 -18 9 -33 18 -33 20 0 2
12 24 26 50 31 55 25 70 -25 63 -33 -4 -39 -2 -50 24 -8 18 -10 45 -6 74 7 41
10 45 35 45 15 0 58 -16 96 -35z m-2489 -31 c-3 -3 -12 -4 -19 -1 -8 3 -5 6 6
6 11 1 17 -2 13 -5z m2727 -63 c73 -59 87 -90 18 -36 -33 26 -63 53 -66 61 -8
20 -3 18 48 -25z m-2919 9 c-3 -5 -14 -10 -23 -9 -14 0 -13 2 3 9 27 11 27 11
20 0z m3261 -440 c13 0 25 -10 32 -26 7 -15 8 -23 2 -19 -6 4 -19 -13 -29 -36
-17 -36 -20 -39 -23 -19 -4 33 -26 37 -30 6 -2 -19 -7 -23 -17 -17 -9 6 -11
14 -4 26 6 9 7 34 3 54 -9 52 -3 64 23 46 12 -8 31 -15 43 -15z m-8911 -180
c-10 -11 -20 -18 -23 -15 -7 6 18 35 31 35 5 0 2 -9 -8 -20z m-405 -380 c0
-11 -7 -20 -15 -20 -13 0 -14 4 -5 20 6 11 13 20 15 20 3 0 5 -9 5 -20z m-56
-75 c-23 -35 -29 -25 -7 13 10 18 19 27 21 22 2 -5 -4 -20 -14 -35z m-1014
-1091 c0 -8 -4 -12 -10 -9 -5 3 -10 10 -10 16 0 5 5 9 10 9 6 0 10 -7 10 -16z
m-10 -119 c-8 -22 -13 -26 -19 -16 -5 8 -2 25 8 42 19 34 27 15 11 -26z
m-1030 -73 c-17 -77 -25 -56 -9 25 8 37 15 59 17 48 3 -10 -1 -43 -8 -73z
m1030 -103 c0 -5 -4 -9 -10 -9 -5 0 -10 7 -10 16 0 8 5 12 10 9 6 -3 10 -10
10 -16z m0 -48 c0 -6 -4 -13 -10 -16 -5 -3 -10 1 -10 9 0 9 5 16 10 16 6 0 10
-4 10 -9z m-1163 -38 c-3 -10 -5 -4 -5 12 0 17 2 24 5 18 2 -7 2 -21 0 -30z
m-42 -100 c-5 -65 -10 -83 -22 -83 -12 0 -14 7 -10 28 3 15 8 56 12 92 4 36 9
72 13 80 11 28 14 -31 7 -117z m1146 -40 c-9 -16 -10 -16 -11 -1 0 9 3 25 7
35 7 16 8 17 11 1 2 -10 -1 -25 -7 -35z m-1101 -49 c-7 -24 -16 -47 -21 -49
-11 -7 0 64 14 93 17 35 21 7 7 -44z m87 9 c-3 -10 -5 -4 -5 12 0 17 2 24 5
18 2 -7 2 -21 0 -30z m-197 -139 c0 -8 -4 -12 -10 -9 -5 3 -10 10 -10 16 0 5
5 9 10 9 6 0 10 -7 10 -16z m26 -152 c0 -9 2 -21 4 -27 4 -18 0 -108 -5 -103
-3 2 -8 40 -11 84 -3 43 -2 76 2 71 4 -4 9 -15 10 -25z m929 -2 c-5 -16 -10
-19 -18 -11 -7 7 -6 15 3 26 17 20 24 13 15 -15z m-185 -941 c-7 -11 -14 -19
-16 -16 -7 7 7 37 17 37 6 0 5 -9 -1 -21z m-406 -1119 l6 -34 -30 29 c-33 31
-36 45 -18 63 15 15 32 -9 42 -58z m276 -423 c0 -5 -4 -5 -10 -2 -5 3 -10 14
-10 23 0 15 2 15 10 2 5 -8 10 -19 10 -23z m770 -1 c-24 -63 -41 -180 -47
-310 -5 -124 -4 -140 11 -152 9 -6 13 -15 8 -18 -6 -3 -18 7 -28 22 -16 23
-19 47 -19 174 0 100 4 149 11 152 6 2 14 20 18 40 8 40 45 130 52 123 3 -2 0
-16 -6 -31z m-1269 7 c1 -10 3 -31 5 -48 l3 -30 -14 25 c-17 29 -19 70 -5 70
6 0 11 -8 11 -17z m-1 -115 c0 -16 -3 -19 -11 -11 -6 6 -8 16 -5 22 11 17 16
13 16 -11z m1585 -396 c21 -146 20 -156 -10 -100 -22 42 -25 59 -24 150 0 124
12 107 34 -50z m-1087 -835 c-3 -20 -5 -18 -20 13 -9 19 -14 38 -11 43 9 14
35 -32 31 -56z m3439 -2893 c-3 -3 -12 -4 -19 -1 -8 3 -5 6 6 6 11 1 17 -2 13
-5z m-2079 -304 c17 -11 32 -24 32 -28 0 -5 37 -48 83 -95 80 -84 84 -87 127
-87 42 0 51 -5 113 -63 63 -60 79 -88 58 -102 -5 -3 -13 -20 -16 -38 -8 -35
-64 -150 -89 -182 -12 -15 -15 -16 -16 -5 0 19 -79 139 -136 206 -48 56 -219
387 -209 404 9 14 15 13 53 -10z"/>
<path d="M6400 16174 c0 -17 22 -14 28 4 2 7 -3 12 -12 12 -9 0 -16 -7 -16
-16z"/>
<path d="M14310 15130 c0 -5 5 -10 10 -10 6 0 10 5 10 10 0 6 -4 10 -10 10 -5
0 -10 -4 -10 -10z"/>
<path d="M14350 15096 c0 -18 53 -61 58 -47 5 14 -30 60 -45 61 -7 0 -13 -6
-13 -14z"/>
<path d="M11890 18121 c0 -5 7 -11 15 -15 9 -3 15 0 15 9 0 8 -7 15 -15 15 -8
0 -15 -4 -15 -9z"/>
<path d="M5510 17479 c0 -21 31 -69 41 -63 6 3 17 -2 24 -12 25 -33 16 -5 -11
35 -25 39 -54 60 -54 40z"/>
<path d="M6406 17043 c-8 -21 10 -41 24 -27 11 11 3 44 -10 44 -4 0 -11 -8
-14 -17z"/>
<path d="M13887 16174 c-9 -10 2 -24 19 -24 8 0 14 7 14 15 0 15 -21 21 -33 9z"/>
<path d="M13970 16107 c0 -18 50 -63 80 -72 13 -4 37 -17 52 -28 14 -11 34
-17 42 -14 11 5 16 0 16 -13 0 -13 7 -20 20 -20 14 0 20 -7 20 -22 0 -13 7
-36 16 -53 10 -19 13 -42 9 -63 -5 -29 -1 -37 34 -73 23 -22 41 -44 41 -49 0
-6 3 -10 8 -10 18 1 32 19 36 48 2 17 8 37 13 44 6 7 13 27 16 44 9 47 -34
104 -79 104 -17 0 -27 11 -40 40 -10 23 -25 40 -34 40 -9 0 -26 9 -38 21 -24
22 -62 34 -62 18 0 -5 4 -9 9 -9 5 0 12 -8 15 -17 3 -10 -14 3 -39 29 -27 29
-51 45 -60 42 -8 -3 -24 1 -37 10 -27 19 -38 20 -38 3z m347 -319 c-3 -8 -6
-5 -6 6 -1 11 2 17 5 13 3 -3 4 -12 1 -19z"/>
<path d="M14542 15878 c-15 -15 -15 -61 -1 -75 14 -14 35 -7 61 19 23 23 20
54 -6 50 -9 -2 -23 1 -30 7 -9 7 -16 7 -24 -1z"/>
<path d="M14557 15754 c-13 -13 -7 -42 10 -48 26 -10 36 9 16 33 -10 12 -22
19 -26 15z"/>
<path d="M14630 15673 c0 -11 51 -59 103 -98 56 -42 44 -13 -15 37 -77 64 -88
71 -88 61z"/>
<path d="M14308 15663 c-10 -2 -18 -13 -18 -24 0 -14 7 -19 29 -19 17 0 33 5
36 10 7 11 -12 41 -24 39 -3 -1 -14 -3 -23 -6z"/>
<path d="M14572 15659 c2 -7 10 -15 17 -17 8 -3 12 1 9 9 -2 7 -10 15 -17 17
-8 3 -12 -1 -9 -9z"/>
<path d="M14530 15572 c6 -13 14 -21 18 -18 3 4 -2 14 -12 24 -18 16 -18 16
-6 -6z"/>
<path d="M5440 15535 c-9 -11 -10 -19 -3 -26 13 -13 35 12 24 29 -6 10 -11 9
-21 -3z"/>
<path d="M14590 15510 c11 -20 30 -28 30 -12 0 11 -22 32 -32 32 -5 0 -4 -9 2
-20z"/>
<path d="M5577 15484 c-8 -8 1 -24 14 -24 5 0 9 7 9 15 0 15 -12 20 -23 9z"/>
<path d="M14687 15438 c3 -18 9 -35 12 -38 3 -3 11 -14 17 -25 14 -26 30 -17
26 14 -3 25 -40 81 -54 81 -4 0 -5 -15 -1 -32z"/>
<path d="M14864 15445 c-8 -20 4 -35 27 -35 20 0 23 8 13 34 -8 20 -33 21 -40
1z"/>
<path d="M14512 15438 c3 -7 13 -15 24 -17 16 -3 17 -1 5 13 -16 19 -34 21
-29 4z"/>
<path d="M5720 15401 c0 -5 5 -13 10 -16 6 -3 10 -2 10 4 0 5 -4 13 -10 16 -5
3 -10 2 -10 -4z"/>
<path d="M6059 15379 c-24 -14 4 -27 29 -14 22 12 22 13 4 17 -11 3 -26 2 -33
-3z"/>
<path d="M6020 15329 c0 -5 5 -7 10 -4 6 3 10 8 10 11 0 2 -4 4 -10 4 -5 0
-10 -5 -10 -11z"/>
<path d="M5675 15320 c-3 -5 1 -10 9 -10 8 0 18 5 21 10 3 6 -1 10 -9 10 -8 0
-18 -4 -21 -10z"/>
<path d="M5887 15253 c-12 -11 -8 -23 8 -23 8 0 15 7 15 15 0 16 -12 20 -23 8z"/>
<path d="M6997 15223 c-21 -20 -35 -43 -32 -51 3 -7 5 -18 5 -23 0 -18 18 -9
61 31 36 33 42 43 33 57 -17 28 -28 25 -67 -14z"/>
<path d="M14752 15238 c-17 -17 -15 -29 14 -62 28 -31 47 -23 36 16 -5 19 -2
20 37 13 49 -8 55 7 11 30 -35 18 -81 20 -98 3z"/>
<path d="M5835 15185 c-3 -8 -7 -22 -10 -31 -3 -11 0 -14 12 -12 11 2 18 14
20 31 2 28 -14 38 -22 12z"/>
<path d="M14890 15165 c10 -12 96 -65 106 -65 2 0 1 7 -2 15 -3 8 -21 20 -40
27 -19 6 -34 15 -34 19 0 4 -9 9 -21 12 -16 4 -18 3 -9 -8z"/>
<path d="M5227 15157 c-3 -8 -2 -19 3 -26 5 -10 9 -8 14 4 3 9 6 21 6 26 0 14
-17 11 -23 -4z"/>
<path d="M5796 15141 c-4 -7 -5 -15 -2 -18 9 -9 19 4 14 18 -4 11 -6 11 -12 0z"/>
<path d="M6854 15130 c-12 -5 -54 -30 -94 -57 -40 -26 -87 -57 -104 -68 -35
-22 -133 -98 -180 -138 -16 -14 -41 -31 -55 -39 -33 -16 -41 -27 -41 -55 0
-16 6 -23 20 -23 11 0 20 7 20 15 0 8 6 15 14 15 8 0 37 18 65 40 28 22 59 40
70 40 11 0 25 9 31 20 6 11 8 20 4 20 -4 0 1 9 11 20 10 11 23 19 29 17 20 -8
188 92 246 145 36 33 11 65 -36 48z"/>
<path d="M5794 15099 c-10 -17 13 -36 27 -22 12 12 4 33 -11 33 -5 0 -12 -5
-16 -11z"/>
<path d="M14880 15076 c0 -9 7 -16 16 -16 17 0 14 22 -4 28 -7 2 -12 -3 -12
-12z"/>
<path d="M5157 15053 c-4 -3 -7 -11 -7 -17 0 -6 5 -5 12 2 6 6 9 14 7 17 -3 3
-9 2 -12 -2z"/>
<path d="M14944 15029 c-8 -14 11 -33 25 -25 11 7 4 36 -9 36 -5 0 -12 -5 -16
-11z"/>
<path d="M15095 15020 c-6 -9 11 -50 20 -50 3 0 5 14 5 30 0 29 -13 40 -25 20z"/>
<path d="M15017 14927 c-5 -13 14 -47 27 -47 12 0 6 38 -8 49 -10 9 -15 8 -19
-2z"/>
<path d="M4756 14898 c-15 -70 -26 -200 -18 -214 7 -12 11 0 16 42 3 33 9 79
12 104 2 25 7 52 10 62 3 9 0 19 -5 23 -6 3 -13 -4 -15 -17z"/>
<path d="M14975 14891 c-3 -5 -1 -12 5 -16 5 -3 10 1 10 9 0 18 -6 21 -15 7z"/>
<path d="M14914 14876 c-7 -19 3 -36 22 -36 10 0 14 8 12 22 -4 26 -26 36 -34
14z"/>
<path d="M15080 14866 c0 -16 24 -38 33 -30 7 7 -14 44 -25 44 -5 0 -8 -6 -8
-14z"/>
<path d="M4988 14844 c-5 -4 -8 -16 -8 -28 0 -14 3 -17 11 -9 6 6 9 19 7 28
-1 9 -6 13 -10 9z"/>
<path d="M4680 14775 c0 -17 5 -25 13 -22 6 2 12 12 12 22 0 10 -6 20 -12 23
-8 2 -13 -6 -13 -23z"/>
<path d="M15185 14790 c3 -5 8 -10 11 -10 2 0 4 5 4 10 0 6 -5 10 -11 10 -5 0
-7 -4 -4 -10z"/>
<path d="M12605 14705 c-30 -41 -56 -80 -57 -86 -2 -6 7 -15 19 -20 21 -7 28
-1 73 63 27 39 50 67 50 63 0 -4 9 0 20 10 31 28 25 45 -15 45 -31 0 -39 -7
-90 -75z"/>
<path d="M6286 14729 c-14 -11 -26 -26 -26 -32 0 -7 -14 -20 -31 -30 -32 -18
-35 -40 -5 -45 19 -4 76 44 76 64 0 6 11 19 25 28 25 17 26 36 1 36 -7 0 -25
-9 -40 -21z"/>
<path d="M14996 14722 c-4 -7 -4 -16 -1 -22 3 -5 -3 -10 -14 -10 -27 0 -27
-26 -1 -40 22 -12 50 6 50 32 0 23 -26 53 -34 40z"/>
<path d="M15115 14716 c-26 -19 -13 -51 15 -36 27 15 41 4 38 -28 -2 -18 2
-27 15 -30 33 -7 35 59 1 92 -19 20 -44 20 -69 2z"/>
<path d="M15221 14700 c-1 -8 8 -26 19 -40 15 -19 20 -21 20 -9 0 9 -9 27 -20
40 -13 17 -19 19 -19 9z"/>
<path d="M4646 14692 c-9 -15 -4 -94 5 -85 10 10 15 80 7 88 -3 4 -9 2 -12 -3z"/>
<path d="M14870 14672 c0 -15 28 -47 35 -40 8 8 -13 48 -25 48 -6 0 -10 -4
-10 -8z"/>
<path d="M6152 14591 c-9 -17 -25 -31 -35 -31 -23 0 -17 -24 7 -28 22 -5 66
35 66 59 0 31 -20 31 -38 0z"/>
<path d="M4930 14601 c0 -6 5 -13 10 -16 6 -3 10 1 10 9 0 9 -4 16 -10 16 -5
0 -10 -4 -10 -9z"/>
<path d="M14982 14598 c-15 -15 -16 -45 -2 -53 16 -10 41 16 38 38 -4 25 -20
31 -36 15z"/>
<path d="M4850 14585 c0 -8 5 -15 10 -15 6 0 10 7 10 15 0 8 -4 15 -10 15 -5
0 -10 -7 -10 -15z"/>
<path d="M4612 14533 c-15 -29 26 -111 42 -85 9 15 -8 95 -21 99 -6 2 -16 -4
-21 -14z"/>
<path d="M6021 14486 c-18 -19 -30 -39 -27 -45 4 -6 2 -11 -3 -11 -6 0 -23
-13 -37 -30 -15 -16 -35 -32 -45 -35 -22 -7 -52 -52 -43 -66 4 -7 14 -3 28 9
11 11 31 23 43 26 11 4 28 22 37 41 11 23 21 32 31 28 21 -7 45 15 45 43 0 12
7 29 15 38 8 8 15 19 15 25 0 21 -26 11 -59 -23z"/>
<path d="M12071 14391 c-8 -6 -9 -11 -3 -15 6 -3 14 -1 17 5 9 14 2 20 -14 10z"/>
<path d="M5806 14373 c-12 -12 -6 -43 9 -43 8 0 15 9 15 19 0 21 -13 34 -24
24z"/>
<path d="M12025 14350 c-10 -11 -13 -20 -7 -20 7 0 12 5 12 10 0 6 7 10 15 10
8 0 15 5 15 10 0 16 -15 12 -35 -10z"/>
<path d="M5756 14308 c-17 -24 -22 -58 -8 -58 9 0 34 71 28 78 -2 2 -11 -7
-20 -20z"/>
<path d="M5796 14312 c-2 -4 2 -16 10 -27 10 -14 17 -16 25 -8 7 7 9 19 6 27
-7 17 -32 22 -41 8z"/>
<path d="M11955 14300 c-3 -5 -1 -10 4 -10 6 0 11 5 11 10 0 6 -2 10 -4 10 -3
0 -8 -4 -11 -10z"/>
<path d="M11932 14268 c-15 -15 -16 -41 0 -36 13 5 31 48 20 48 -5 0 -13 -5
-20 -12z"/>
<path d="M5705 14230 c-10 -17 20 -44 40 -36 9 3 15 14 13 23 -4 21 -43 30
-53 13z"/>
<path d="M11891 14206 c-8 -9 -11 -19 -7 -23 9 -9 29 13 24 27 -2 8 -8 7 -17
-4z"/>
<path d="M14852 14158 c6 -18 28 -21 28 -4 0 9 -7 16 -16 16 -9 0 -14 -5 -12
-12z"/>
<path d="M15627 14134 c-9 -9 4 -34 18 -34 19 0 26 27 9 34 -19 7 -19 7 -27 0z"/>
<path d="M14937 14094 c-8 -9 32 -82 49 -88 9 -3 10 3 4 23 -16 58 -36 82 -53
65z"/>
<path d="M15670 14077 c0 -23 62 -89 73 -78 7 7 1 23 -18 51 -27 39 -55 53
-55 27z"/>
<path d="M15280 14020 c0 -10 6 -31 12 -46 10 -22 10 -28 0 -32 -6 -2 -12 -10
-12 -18 0 -8 -7 -14 -16 -14 -11 0 -14 -8 -12 -27 4 -34 38 -46 38 -14 0 12 6
21 14 21 22 0 30 83 11 119 -18 35 -35 41 -35 11z"/>
<path d="M15340 14020 c0 -11 7 -20 15 -20 8 0 15 9 15 20 0 11 -7 20 -15 20
-8 0 -15 -9 -15 -20z"/>
<path d="M14534 13969 c-3 -6 1 -18 9 -27 13 -13 19 -13 32 -2 12 10 13 16 4
26 -14 17 -35 18 -45 3z"/>
<path d="M15767 13953 c-17 -16 -5 -56 26 -84 40 -37 63 -35 59 5 -7 55 -60
104 -85 79z"/>
<path d="M15461 13914 c0 -11 3 -14 6 -6 3 7 2 16 -1 19 -3 4 -6 -2 -5 -13z"/>
<path d="M15465 13833 c3 -21 17 -57 31 -80 25 -44 35 -113 11 -82 -19 24 -65
51 -70 41 -3 -4 14 -30 38 -57 38 -42 47 -60 66 -139 27 -116 36 -206 20 -206
-8 0 -8 -5 -2 -17 20 -35 55 -148 53 -170 -1 -17 15 -36 63 -75 57 -45 68 -59
81 -105 14 -47 42 -81 56 -67 10 9 78 -38 78 -54 0 -13 -2 -13 -17 0 -27 23
-54 30 -69 17 -22 -18 -17 -36 16 -56 17 -9 30 -22 30 -28 0 -6 11 -21 25 -33
14 -12 25 -27 25 -33 0 -6 13 -29 29 -53 25 -36 53 -136 38 -136 -11 0 -68
103 -74 133 -3 18 -22 48 -42 67 -20 19 -46 49 -58 65 -19 25 -24 27 -32 15
-7 -10 -4 -24 10 -46 10 -17 19 -38 19 -46 0 -8 35 -84 78 -169 105 -206 106
-208 128 -254 11 -22 29 -44 42 -50 23 -10 27 -22 13 -44 -5 -8 -3 -24 5 -40
8 -14 14 -37 14 -50 0 -23 27 -82 74 -164 13 -23 30 -62 36 -87 6 -25 18 -55
26 -68 8 -13 14 -31 12 -41 -2 -10 7 -37 19 -62 30 -62 44 -106 53 -163 6 -42
5 -46 -7 -30 -7 10 -13 30 -13 45 0 15 -4 30 -9 34 -13 7 -23 -51 -17 -95 13
-96 30 -194 47 -273 10 -49 22 -118 25 -153 4 -35 10 -64 14 -64 9 0 22 59 15
69 -2 4 -9 43 -14 87 -16 115 -21 146 -31 175 -5 16 -4 31 1 36 6 6 6 20 0 36
-7 18 -7 27 -1 27 16 0 28 -38 39 -123 6 -42 15 -85 20 -95 12 -24 45 -208 45
-251 -1 -86 -9 -131 -21 -131 -21 0 -27 -27 -13 -60 9 -23 10 -37 1 -57 -6
-16 -12 -37 -14 -48 -4 -29 -18 -48 -53 -73 l-32 -22 -14 22 c-33 50 -52 -28
-24 -97 8 -18 26 -41 40 -50 24 -16 26 -23 26 -92 0 -78 -25 -209 -44 -230
-14 -16 -86 2 -115 28 -11 10 -26 19 -34 19 -18 0 -37 -21 -37 -41 0 -20 -38
-89 -49 -89 -4 0 -28 -31 -52 -70 -45 -72 -52 -79 -66 -57 -4 6 -17 17 -28 23
-12 7 -22 26 -26 50 -3 21 -11 52 -17 67 -7 15 -11 31 -10 35 4 16 -15 53 -25
49 -7 -3 -11 -9 -10 -15 1 -5 -24 -13 -57 -17 -59 -7 -76 -19 -43 -32 14 -5
13 -8 -6 -15 -39 -14 -22 -41 34 -52 48 -11 50 -12 57 -54 4 -24 19 -81 33
-127 14 -46 23 -89 20 -97 -2 -7 -7 -42 -9 -78 -10 -147 -37 -220 -93 -251
-21 -12 -28 -23 -28 -45 0 -24 7 -32 38 -46 20 -10 37 -23 37 -29 0 -6 -20
-54 -45 -105 -25 -52 -48 -107 -52 -122 -9 -38 -83 -160 -101 -167 -8 -3 -25
3 -36 14 -28 27 -58 12 -38 -19 17 -27 16 -43 -3 -33 -16 9 -80 110 -90 143
-4 11 -24 57 -44 103 -47 102 -57 140 -38 155 18 15 92 181 84 188 -18 18 -46
-21 -88 -121 l-12 -30 -7 35 c-3 19 -11 44 -17 55 -6 11 -15 32 -21 46 -17 42
-92 73 -177 73 -93 0 -123 -16 -147 -79 -34 -87 -8 -191 67 -265 28 -28 35
-41 35 -74 0 -32 7 -48 33 -76 33 -34 67 -128 67 -181 0 -19 -4 -21 -35 -16
-19 3 -50 17 -68 31 -19 14 -41 26 -49 26 -9 0 -21 12 -27 28 -12 28 -103 131
-118 133 -55 8 -78 7 -95 -2 -15 -8 -22 -8 -28 1 -25 41 -88 -52 -116 -171
-23 -97 -20 -236 6 -307 22 -61 83 -135 121 -147 23 -7 36 -90 49 -300 6 -88
13 -194 16 -235 4 -48 1 -98 -9 -140 -8 -36 -13 -83 -12 -105 1 -22 3 -65 5
-95 3 -62 -1 -81 -40 -165 -15 -33 -38 -89 -51 -125 -12 -36 -28 -72 -36 -81
-7 -8 -13 -36 -13 -62 0 -33 -5 -49 -17 -55 -11 -7 -18 -25 -19 -57 -2 -28
-13 -64 -29 -90 -14 -24 -25 -49 -25 -55 0 -22 -54 -98 -81 -114 -15 -9 -51
-44 -80 -78 -30 -35 -76 -86 -104 -114 -27 -27 -90 -92 -140 -143 -49 -51
-100 -96 -112 -101 -12 -5 -38 -31 -57 -57 -32 -43 -36 -54 -34 -106 2 -54 0
-59 -32 -86 -19 -16 -62 -66 -95 -112 -33 -45 -80 -101 -103 -123 -38 -36 -50
-41 -92 -42 -94 -1 -163 -85 -176 -212 -6 -66 -9 -75 -31 -83 -49 -18 -183
-188 -183 -231 0 -9 -4 -19 -8 -22 -5 -3 -25 -45 -46 -93 -29 -70 -44 -93 -74
-114 -30 -21 -41 -37 -56 -90 -26 -87 -79 -132 -114 -97 -9 9 -13 7 -18 -5 -3
-10 -30 -24 -63 -33 -73 -21 -223 -74 -236 -85 -6 -4 -31 -11 -55 -15 -25 -4
-73 -20 -107 -36 -39 -17 -80 -28 -107 -28 -25 0 -55 -4 -68 -9 -51 -20 -137
-43 -208 -56 -95 -17 -130 -30 -130 -50 0 -8 -11 -17 -25 -21 -14 -3 -29 -13
-34 -21 -11 -20 -119 -42 -206 -43 -63 0 -71 -2 -92 -27 -19 -25 -21 -25 -17
-6 13 49 -69 53 -99 5 -9 -15 -28 -40 -42 -55 -22 -24 -29 -27 -53 -19 -21 7
-28 17 -33 44 -5 31 -33 104 -58 148 -4 8 -18 16 -30 18 -15 2 -21 11 -21 27
0 13 5 27 10 30 14 9 12 42 -2 48 -10 4 -10 7 0 18 19 20 11 129 -9 129 -19 0
-117 -71 -171 -124 -90 -88 -88 -108 19 -188 53 -39 74 -77 55 -101 -5 -6 -24
-45 -41 -86 -31 -73 -39 -133 -21 -161 7 -12 11 -9 19 11 5 14 24 40 42 58 27
27 39 32 73 30 64 -3 67 -2 60 26 -6 23 -4 24 30 18 22 -3 42 -1 51 7 19 16
19 9 0 -37 -8 -19 -15 -39 -15 -43 0 -12 49 -30 80 -30 33 0 38 -11 15 -30
-13 -11 -21 -40 -12 -40 12 0 67 33 67 40 0 5 -8 13 -17 19 -26 14 66 25 124
14 49 -9 176 5 238 25 29 10 315 37 319 30 1 -2 16 -21 33 -43 17 -22 36 -59
42 -83 8 -27 17 -42 28 -42 23 0 12 84 -16 119 -11 14 -28 38 -36 54 l-16 27
60 0 c32 0 75 -7 95 -15 35 -15 70 -14 171 1 22 4 108 8 190 9 83 2 169 3 193
4 35 1 49 7 75 34 18 18 46 39 62 46 17 7 41 19 55 27 30 16 179 89 316 154
55 26 107 54 115 62 28 27 125 87 219 134 52 26 127 70 165 99 81 59 173 122
218 149 18 11 75 46 127 78 52 32 100 58 106 58 8 0 12 -11 11 -27 -2 -26 1
-28 33 -28 32 0 35 2 33 28 l-2 27 77 0 c90 0 178 13 224 33 43 18 121 37 156
37 l27 0 -35 -27 c-19 -15 -70 -62 -114 -105 -43 -43 -83 -78 -87 -78 -5 0
-16 -18 -25 -39 -10 -26 -20 -38 -29 -35 -7 3 -21 -6 -30 -20 -13 -20 -24 -25
-49 -23 -29 2 -31 0 -29 -27 1 -16 9 -36 17 -45 14 -13 22 -11 72 14 62 31
174 129 174 151 0 25 69 92 89 87 21 -5 124 104 117 124 -8 20 22 36 58 30 52
-8 110 14 172 66 31 26 64 48 73 48 50 4 73 9 146 28 114 31 175 54 205 77 8
6 26 14 40 17 14 3 52 15 84 26 33 12 78 21 100 21 43 0 53 5 73 31 10 13 9
23 -7 57 -11 23 -20 45 -20 49 0 4 17 21 38 37 20 17 48 42 61 58 13 15 31 28
40 28 9 0 33 20 54 44 38 47 72 65 89 48 5 -5 11 -34 12 -63 2 -47 6 -54 24
-57 12 -2 22 2 22 8 0 6 16 18 36 26 33 14 38 14 55 -2 10 -9 19 -23 19 -30 0
-16 43 -108 69 -149 31 -47 61 -116 61 -139 0 -40 30 -137 53 -171 30 -44 93
-120 139 -168 20 -21 38 -42 40 -47 3 -9 52 -68 126 -153 24 -28 52 -68 62
-91 9 -23 28 -50 40 -61 34 -30 96 -127 156 -243 30 -56 61 -113 69 -126 8
-13 33 -76 55 -142 35 -103 39 -126 34 -179 -5 -56 -4 -62 22 -89 24 -25 31
-27 68 -22 47 8 63 24 72 75 9 44 -13 85 -46 89 -67 8 -74 17 -109 132 -32
109 -89 229 -177 377 -26 43 -47 86 -46 96 1 28 23 49 45 43 10 -2 27 4 38 15
27 27 39 24 39 -13 0 -18 12 -63 27 -100 21 -56 40 -82 100 -141 40 -39 84
-77 98 -82 41 -18 174 -144 209 -200 22 -34 43 -55 60 -59 15 -4 26 -13 26
-24 0 -9 16 -42 37 -72 20 -30 47 -71 60 -91 12 -19 23 -49 23 -67 0 -25 13
-45 71 -104 39 -40 102 -115 141 -166 39 -51 78 -98 87 -105 31 -23 43 -47 66
-129 48 -171 93 -262 148 -299 40 -27 115 -106 122 -128 3 -9 18 -25 35 -34
29 -17 40 -37 21 -37 -17 0 -71 -61 -71 -81 0 -11 15 -36 33 -56 29 -31 38
-35 62 -29 40 10 80 58 91 107 8 36 14 44 40 51 55 14 66 45 44 116 -9 30 -25
52 -49 69 -39 28 -161 153 -161 164 0 4 -16 26 -35 49 -19 23 -35 52 -35 65 0
33 -48 164 -71 195 -11 14 -26 34 -35 45 -44 59 -82 115 -103 155 -46 86 -198
251 -267 289 -22 13 -48 36 -58 52 -9 15 -22 34 -30 41 -7 7 -25 36 -41 63
-67 117 -128 195 -206 266 -46 42 -144 135 -216 206 -88 86 -150 138 -183 154
-34 16 -53 32 -60 51 -5 15 -15 42 -22 59 -6 18 -39 53 -80 86 -38 30 -84 71
-101 90 -18 20 -46 51 -62 68 -63 67 -101 122 -143 205 -42 82 -44 90 -52 214
-9 117 -12 133 -37 169 -16 21 -39 57 -52 79 -22 37 -22 40 -6 58 10 11 26 22
37 26 10 3 23 16 28 29 6 15 19 24 41 27 29 4 39 -2 102 -65 l70 -70 86 22
c47 12 91 23 96 25 22 5 71 35 88 53 16 19 16 23 0 74 -9 30 -21 60 -27 68
-13 16 -48 30 -94 36 -19 2 -37 6 -39 9 -5 5 1 33 31 151 9 33 16 74 16 90 0
71 18 102 75 134 55 31 55 31 198 29 78 -1 202 3 276 8 150 10 247 -2 291 -36
14 -11 41 -29 60 -40 19 -11 58 -34 85 -50 28 -17 70 -40 95 -51 25 -12 64
-30 88 -41 60 -28 152 -35 196 -14 19 9 37 16 41 16 4 0 20 9 35 20 20 14 30
32 35 60 16 97 -88 190 -213 190 -50 0 -66 4 -90 25 -47 39 -137 75 -205 81
-34 3 -84 13 -112 21 -50 15 -57 16 -130 29 -22 4 -50 16 -63 27 -22 21 -23
21 -57 3 -19 -11 -35 -23 -35 -27 0 -25 -223 -10 -304 21 -15 5 -43 10 -62 10
-45 0 -94 25 -94 48 0 18 73 72 99 72 31 0 80 50 86 88 4 20 15 63 26 95 24
72 24 73 -7 100 -37 32 -105 47 -224 47 -104 1 -105 1 -128 30 -23 29 -23 29
-4 57 11 15 43 64 72 108 28 44 53 81 55 83 1 1 17 4 35 7 44 5 127 -12 168
-36 18 -10 39 -19 46 -19 7 0 37 -18 67 -40 78 -59 103 -49 164 61 l25 46 -21
27 c-19 24 -26 27 -59 21 -25 -4 -59 1 -106 16 -38 12 -71 23 -72 25 -13 10
17 48 58 73 28 17 50 36 51 43 5 62 9 102 12 104 1 2 29 7 62 12 88 14 344 7
465 -12 193 -30 225 -37 301 -64 74 -25 78 -25 103 -9 28 19 33 42 13 69 -12
15 -41 30 -227 115 -36 17 -85 40 -110 52 -69 32 -188 71 -265 86 -48 10 -131
13 -263 12 l-194 -2 -13 25 c-17 35 -26 108 -17 150 6 28 13 36 34 38 15 2 38
-4 51 -13 51 -33 152 -53 160 -31 4 10 -7 17 -38 25 -24 6 -47 16 -51 23 -12
19 27 38 79 38 34 0 47 4 45 13 -8 21 -55 32 -96 22 -20 -6 -56 -8 -80 -5
l-43 5 33 31 c54 50 87 66 177 86 76 17 240 66 348 104 23 9 57 25 75 38 56
38 102 50 273 72 27 3 61 14 76 24 14 11 34 17 45 14 10 -3 41 2 68 10 52 16
65 13 115 -25 32 -25 93 -25 115 0 15 16 16 25 6 60 -18 69 -74 90 -137 51
-30 -18 -35 -18 -90 -4 -57 15 -184 12 -208 -5 -32 -24 -192 -50 -335 -55 -85
-4 -220 -9 -300 -12 -158 -5 -235 -16 -293 -41 -20 -9 -40 -14 -42 -11 -3 3
-1 27 5 53 18 79 4 64 -44 -47 -20 -48 -32 -48 -39 -1 -5 28 0 51 18 91 30 66
31 77 5 109 -24 31 -26 53 -5 53 29 0 65 47 65 83 0 43 -51 117 -80 117 -27 0
-43 43 -37 95 4 33 18 53 77 115 39 41 89 101 111 132 21 31 52 65 68 74 16 9
36 32 44 50 9 18 29 40 45 48 16 8 37 27 46 42 10 14 55 72 100 128 45 55 99
124 120 151 71 95 142 160 258 238 92 62 130 81 189 96 41 10 79 15 84 11 18
-14 196 -31 244 -24 56 9 97 37 122 86 25 48 24 69 -3 92 -17 15 -32 17 -75
13 -30 -3 -61 -11 -69 -18 -10 -8 -21 -9 -41 -1 -61 24 -134 18 -171 -13 -17
-14 -42 -25 -57 -25 -17 0 -37 -11 -55 -30 -16 -17 -52 -42 -82 -56 -29 -15
-67 -34 -83 -43 -41 -22 -144 -103 -175 -136 -22 -24 -68 -59 -119 -90 -44
-26 -121 -88 -121 -96 0 -5 -7 -9 -14 -9 -30 0 -283 -179 -322 -227 -21 -27
-67 -78 -103 -115 -36 -36 -80 -83 -97 -104 l-32 -38 -6 90 c-16 234 -19 290
-21 434 -2 170 3 217 45 425 15 77 34 168 40 202 15 76 7 153 -33 298 -13 50
-12 47 -27 125 -19 107 -30 153 -46 184 -8 16 -14 36 -14 45 -1 32 -40 103
-54 98 -7 -3 -18 -1 -24 5 -7 7 -16 6 -30 -1 -34 -18 -30 -31 -52 144 -7 50
-16 120 -21 157 -4 37 -15 91 -24 120 -9 29 -23 78 -32 108 -26 94 -78 210
-93 210 -4 0 -10 17 -13 39 -2 21 -17 67 -32 102 -41 96 -41 98 -70 187 -21
64 -31 82 -44 80 -25 -5 -18 -132 14 -237 21 -72 23 -86 11 -95 -25 -19 -24
-49 3 -56 13 -3 25 -13 27 -22 4 -28 36 -122 46 -135 5 -6 8 -35 6 -65 -3 -50
-4 -51 -16 -28 -6 14 -16 32 -20 40 -19 33 -37 67 -58 110 -30 62 -46 75 -75
60 -19 -10 -21 -18 -17 -61 3 -27 2 -49 -2 -49 -13 0 -50 47 -50 63 0 19 -43
91 -60 102 -5 3 -10 21 -10 40 0 37 -28 95 -47 95 -7 0 -13 18 -15 41 -4 53
-28 71 -57 45 -28 -25 -28 -86 -1 -111 11 -10 20 -24 20 -32 0 -7 4 -13 9 -13
5 0 11 -19 13 -42 3 -24 8 -52 12 -63 6 -15 1 -13 -18 8 -14 15 -26 34 -26 42
0 7 -16 41 -35 75 -33 59 -34 62 -18 86 15 23 14 26 -3 47 -11 12 -22 24 -25
27 -18 15 -55 89 -57 113 -2 36 -12 53 -21 38 -4 -5 -22 20 -41 57 -19 37 -42
78 -52 91 -10 13 -18 32 -18 41 0 10 -14 30 -31 44 -27 23 -28 26 -10 26 30 0
61 -35 61 -70 0 -24 4 -30 21 -30 18 0 20 4 15 25 -20 81 -21 75 11 63 21 -8
32 -22 42 -52 7 -22 17 -47 23 -53 18 -22 27 -4 12 25 -8 15 -12 39 -8 54 3
14 -1 39 -9 55 -7 15 -13 33 -12 38 17 117 41 148 80 105 24 -27 43 -25 56 4
9 20 8 30 -8 53 -27 38 -32 54 -44 137 -12 86 -31 120 -62 110 -32 -9 -45 -30
-41 -68 2 -27 -1 -33 -12 -29 -8 3 -14 8 -15 12 -7 66 -30 107 -55 97 -7 -3
-18 2 -24 10 -14 16 -50 19 -50 4 0 -6 5 -19 12 -30 24 -38 -1 -31 -39 10 -48
53 -51 60 -59 105 -5 32 -30 87 -53 120 -21 27 -44 107 -51 170 -8 78 -52 185
-75 185 -8 0 -15 -6 -15 -13 0 -8 -9 -22 -20 -32 -16 -14 -19 -26 -15 -49 5
-26 4 -28 -5 -13 -7 10 -9 31 -5 48 8 35 -8 59 -34 52 -9 -2 -23 3 -30 11 -8
9 -22 16 -33 16 -18 0 -19 -4 -13 -37z m135 -163 c0 -33 -15 -41 -22 -12 -6
21 1 42 13 42 5 0 9 -13 9 -30z m94 -330 c16 -45 16 -74 0 -58 -9 10 -33 108
-25 108 4 0 15 -23 25 -50z m360 -266 c4 -9 4 -19 2 -21 -8 -8 -26 8 -26 23 0
19 16 18 24 -2z m-44 -646 c0 -19 -2 -20 -10 -8 -13 19 -13 30 0 30 6 0 10
-10 10 -22z m675 -374 c17 -42 18 -44 7 -44 -7 0 -32 57 -32 73 0 17 11 4 25
-29z m-335 -91 c-1 -24 -2 -26 -11 -10 -5 9 -7 22 -4 27 10 17 15 11 15 -17z
m149 -58 c0 -5 -4 -3 -9 5 -5 8 -9 22 -9 30 0 16 17 -16 18 -35z m149 -96 c-2
-6 -8 -10 -13 -10 -5 0 -11 4 -13 10 -2 6 4 11 13 11 9 0 15 -5 13 -11z
m-1624 -2401 c-5 -7 -19 -29 -32 -48 -13 -19 -21 -42 -19 -51 2 -9 -2 -27 -9
-40 l-13 -24 -1 31 c0 49 30 124 54 134 28 12 28 12 20 -2z m-137 -610 c38
-37 41 -68 15 -138 -27 -69 -84 -87 -112 -34 -16 29 -27 23 -38 -18 l-8 -32
-22 22 c-27 27 -29 73 -3 96 10 10 22 32 25 50 5 25 14 35 40 44 19 7 40 19
46 27 17 20 19 20 57 -17z m2563 -518 c0 -13 -11 -13 -30 0 -12 8 -11 10 8 10
12 0 22 -4 22 -10z m-3745 -2774 c32 -13 40 -22 42 -44 0 -15 4 -38 7 -52 6
-21 -2 -35 -44 -79 -47 -51 -51 -53 -68 -38 -10 10 -26 17 -34 17 -29 0 -38
23 -27 65 8 29 8 40 0 43 -9 3 -9 7 0 18 9 11 7 14 -9 14 -12 0 -28 10 -37 23
-15 21 -15 22 16 27 18 3 37 14 43 25 17 32 29 35 51 16 11 -9 38 -25 60 -35z
m177 -711 c-60 -41 -136 -87 -168 -102 -33 -15 -81 -40 -107 -55 -26 -15 -56
-28 -66 -28 -10 0 -24 -7 -31 -15 -13 -16 -67 -45 -84 -45 -6 0 -22 -9 -36
-20 -55 -43 -43 -10 32 86 45 58 96 94 133 94 9 0 35 16 58 35 28 24 65 42
112 56 38 10 102 30 140 43 135 45 140 34 17 -49z m-786 39 c-4 -9 -9 -15 -11
-12 -3 3 -3 13 1 22 4 9 9 15 11 12 3 -3 3 -13 -1 -22z m-1878 -607 c3 -23 0
-27 -22 -27 -33 0 -41 15 -19 39 23 25 37 21 41 -12z m232 -11 c0 -3 -4 -8
-10 -11 -5 -3 -10 -1 -10 4 0 6 5 11 10 11 6 0 10 -2 10 -4z"/>
<path d="M15852 13799 c2 -7 10 -15 17 -17 8 -3 12 1 9 9 -2 7 -10 15 -17 17
-8 3 -12 -1 -9 -9z"/>
<path d="M16460 13728 c0 -42 18 -93 21 -58 4 72 3 94 -8 97 -9 3 -13 -8 -13
-39z"/>
<path d="M15902 13744 c1 -9 9 -19 16 -22 9 -3 13 2 10 14 -1 9 -9 19 -16 22
-9 3 -13 -2 -10 -14z"/>
<path d="M5231 13653 c-52 -96 -74 -144 -67 -151 11 -10 55 44 62 76 3 15 8
34 10 42 3 8 5 17 4 19 -1 2 5 8 14 13 9 5 16 16 16 23 0 26 -18 16 -39 -22z"/>
<path d="M16466 13595 c4 -8 8 -15 10 -15 2 0 4 7 4 15 0 8 -4 15 -10 15 -5 0
-7 -7 -4 -15z"/>
<path d="M16004 13549 c-8 -14 18 -31 30 -19 9 9 0 30 -14 30 -5 0 -12 -5 -16
-11z"/>
<path d="M16464 13533 c-4 -10 -9 -36 -10 -58 0 -22 -4 -59 -8 -81 -5 -28 -4
-44 4 -49 6 -4 13 -5 15 -3 2 2 6 41 9 88 4 47 9 93 12 103 3 9 1 17 -4 17 -6
0 -14 -8 -18 -17z"/>
<path d="M5260 13478 c0 -29 2 -31 15 -17 9 9 13 23 9 32 -10 28 -24 19 -24
-15z"/>
<path d="M16084 13467 c-7 -20 36 -91 48 -79 6 6 4 23 -7 46 -20 43 -33 53
-41 33z"/>
<path d="M15320 13438 c0 -20 24 -78 32 -78 9 0 11 51 2 74 -7 19 -34 22 -34
4z"/>
<path d="M15894 13426 c-8 -21 3 -49 16 -41 5 3 10 15 10 25 0 25 -18 36 -26
16z"/>
<path d="M5042 13380 c-7 -11 -8 -20 -2 -20 5 0 14 9 20 20 6 11 7 20 3 20 -5
0 -14 -9 -21 -20z"/>
<path d="M15864 13339 c-8 -14 18 -31 30 -19 9 9 0 30 -14 30 -5 0 -12 -5 -16
-11z"/>
<path d="M4980 13298 c-22 -36 -25 -48 -12 -48 10 0 52 56 52 70 0 21 -21 9
-40 -22z"/>
<path d="M15502 13298 c6 -18 28 -21 28 -4 0 9 -7 16 -16 16 -9 0 -14 -5 -12
-12z"/>
<path d="M4280 13195 c0 -8 5 -15 10 -15 6 0 10 7 10 15 0 8 -4 15 -10 15 -5
0 -10 -7 -10 -15z"/>
<path d="M4067 13194 c-8 -8 1 -24 14 -24 5 0 9 7 9 15 0 15 -12 20 -23 9z"/>
<path d="M4912 13173 c-30 -42 -72 -135 -66 -145 12 -20 27 -3 60 69 39 87 43
127 6 76z"/>
<path d="M4836 13173 c-6 -14 -5 -15 5 -6 7 7 10 15 7 18 -3 3 -9 -2 -12 -12z"/>
<path d="M15536 13163 c-9 -9 14 -43 29 -43 22 0 18 37 -4 43 -11 3 -22 2 -25
0z"/>
<path d="M5060 13095 c-17 -25 -28 -45 -24 -45 4 0 -1 -6 -12 -14 -10 -8 -16
-18 -12 -21 4 -4 14 -1 21 7 16 16 70 118 63 118 -3 0 -19 -20 -36 -45z"/>
<path d="M4070 13065 c0 -8 5 -15 10 -15 6 0 10 7 10 15 0 8 -4 15 -10 15 -5
0 -10 -7 -10 -15z"/>
<path d="M16277 13063 c-12 -11 -8 -23 8 -23 8 0 15 7 15 15 0 16 -12 20 -23
8z"/>
<path d="M15600 13035 c0 -20 38 -57 50 -50 14 9 12 39 -2 53 -17 17 -48 15
-48 -3z"/>
<path d="M16345 13021 c-7 -13 12 -51 26 -51 14 0 7 52 -8 57 -6 2 -14 -1 -18
-6z"/>
<path d="M4976 12966 c-14 -19 -22 -37 -17 -40 9 -6 16 1 44 47 25 39 4 34
-27 -7z"/>
<path d="M16310 12972 c0 -11 9 -27 20 -37 22 -20 25 -11 14 33 -8 27 -34 30
-34 4z"/>
<path d="M15680 12932 c0 -11 9 -27 20 -37 19 -17 20 -17 20 -1 0 23 -18 56
-30 56 -6 0 -10 -8 -10 -18z"/>
<path d="M4317 12923 c-4 -3 -7 -11 -7 -17 0 -6 5 -5 12 2 6 6 9 14 7 17 -3 3
-9 2 -12 -2z"/>
<path d="M14690 12886 c0 -8 24 -31 53 -52 28 -20 101 -77 160 -127 78 -65
111 -87 119 -79 8 8 8 15 -2 27 -7 8 -10 18 -6 22 3 3 6 2 6 -4 0 -14 46 -33
56 -23 5 5 20 10 34 12 25 3 25 4 4 15 -11 7 -32 14 -47 17 -34 6 -67 24 -67
37 0 5 -9 20 -21 32 -11 12 -27 36 -34 54 -7 17 -27 39 -44 48 -17 8 -31 20
-31 25 0 20 -40 9 -56 -15 l-17 -25 -45 25 c-51 29 -62 31 -62 11z"/>
<path d="M3924 12876 c-8 -22 3 -33 18 -18 9 9 9 15 0 24 -9 9 -13 7 -18 -6z"/>
<path d="M15725 12850 c-4 -7 2 -21 15 -34 l22 -21 -7 25 c-10 33 -21 44 -30
30z"/>
<path d="M16420 12806 c0 -17 5 -26 16 -26 10 0 14 7 12 22 -5 32 -28 35 -28
4z"/>
<path d="M3990 12794 c0 -31 23 -28 28 4 2 15 -2 22 -12 22 -11 0 -16 -9 -16
-26z"/>
<path d="M4250 12791 c0 -23 15 -43 41 -56 26 -14 29 -14 39 6 17 31 5 52 -24
45 -14 -3 -28 -2 -31 4 -8 13 -25 13 -25 1z"/>
<path d="M16416 12741 c-7 -11 9 -57 23 -65 15 -10 22 9 15 43 -6 30 -26 41
-38 22z"/>
<path d="M4135 12680 c-3 -5 -1 -10 4 -10 6 0 11 5 11 10 0 6 -2 10 -4 10 -3
0 -8 -4 -11 -10z"/>
<path d="M3960 12661 c0 -6 5 -13 10 -16 6 -3 10 1 10 9 0 9 -4 16 -10 16 -5
0 -10 -4 -10 -9z"/>
<path d="M16032 12631 c16 -25 31 -27 26 -4 -2 10 -11 19 -21 21 -16 3 -17 1
-5 -17z"/>
<path d="M16482 12624 c1 -9 9 -19 16 -22 9 -3 13 2 10 14 -1 9 -9 19 -16 22
-9 3 -13 -2 -10 -14z"/>
<path d="M15070 12611 c0 -12 10 -29 21 -39 41 -34 47 -42 42 -60 -2 -10 3
-24 11 -31 9 -8 16 -18 16 -24 0 -18 53 -67 72 -67 11 0 18 7 18 18 0 20 -57
102 -71 102 -5 0 -9 7 -9 15 0 8 -11 22 -25 31 -14 9 -31 28 -38 42 -16 33
-37 40 -37 13z"/>
<path d="M16137 12594 c-24 -24 36 -174 69 -174 10 0 14 7 11 18 -6 21 -17 70
-23 97 -5 24 -48 68 -57 59z"/>
<path d="M4130 12563 c0 -14 19 -38 25 -32 8 8 -5 39 -16 39 -5 0 -9 -3 -9 -7z"/>
<path d="M4282 12350 c0 -14 2 -19 5 -12 2 6 2 18 0 25 -3 6 -5 1 -5 -13z"/>
<path d="M3875 12209 c-10 -15 3 -25 16 -12 7 7 7 13 1 17 -6 3 -14 1 -17 -5z"/>
<path d="M16445 12200 c-9 -15 25 -74 36 -63 6 6 6 19 0 35 -11 30 -27 43 -36
28z"/>
<path d="M16380 12170 c0 -11 5 -20 10 -20 6 0 10 -7 10 -15 0 -8 5 -15 10
-15 13 0 13 26 0 51 -14 25 -30 24 -30 -1z"/>
<path d="M4008 12134 c-21 -13 -39 -30 -39 -37 -5 -41 -9 -58 -33 -110 -31
-69 -31 -67 -7 -67 20 0 68 75 90 141 6 20 21 45 31 54 22 20 26 45 8 44 -7 0
-30 -11 -50 -25z"/>
<path d="M3905 12039 c-4 -6 -5 -13 -2 -16 7 -7 27 6 27 18 0 12 -17 12 -25
-2z"/>
<path d="M3860 11954 c0 -8 5 -12 10 -9 6 4 8 11 5 16 -9 14 -15 11 -15 -7z"/>
<path d="M15451 11814 c0 -11 3 -14 6 -6 3 7 2 16 -1 19 -3 4 -6 -2 -5 -13z"/>
<path d="M15476 11694 c-3 -9 -3 -21 1 -27 4 -7 6 -22 5 -34 -2 -11 2 -24 8
-28 7 -4 10 11 8 49 -3 56 -11 70 -22 40z"/>
<path d="M3820 11674 c0 -8 5 -12 10 -9 6 3 10 10 10 16 0 5 -4 9 -10 9 -5 0
-10 -7 -10 -16z"/>
<path d="M15500 11525 c0 -14 5 -25 10 -25 6 0 10 11 10 25 0 14 -4 25 -10 25
-5 0 -10 -11 -10 -25z"/>
<path d="M3790 11406 c0 -22 17 -28 24 -10 9 22 8 24 -9 24 -8 0 -15 -6 -15
-14z"/>
<path d="M15526 11325 c6 -50 23 -95 36 -95 7 0 7 5 1 13 -5 6 -10 26 -12 42
-2 17 -7 32 -11 35 -4 3 -10 14 -13 25 -4 11 -4 2 -1 -20z"/>
<path d="M3803 11243 c-18 -7 -16 -33 2 -33 8 0 15 9 15 20 0 11 -1 20 -2 19
-2 0 -9 -3 -15 -6z"/>
<path d="M3787 11174 c-8 -8 1 -24 14 -24 5 0 9 7 9 15 0 15 -12 20 -23 9z"/>
<path d="M15597 11173 c-10 -9 -9 -50 2 -71 5 -9 14 -37 21 -61 8 -31 14 -40
20 -31 5 8 5 21 0 29 -4 9 -11 39 -15 66 -7 55 -17 79 -28 68z"/>
<path d="M4155 10970 c-3 -5 -1 -10 4 -10 6 0 11 5 11 10 0 6 -2 10 -4 10 -3
0 -8 -4 -11 -10z"/>
<path d="M15626 10922 c5 -34 19 -85 32 -122 12 -35 13 36 1 91 -15 67 -44 94
-33 31z"/>
<path d="M3750 10864 c0 -8 5 -12 10 -9 6 3 10 10 10 16 0 5 -4 9 -10 9 -5 0
-10 -7 -10 -16z"/>
<path d="M3628 10801 c-25 -20 -25 -23 -23 -123 2 -63 7 -104 14 -106 6 -2 11
-10 11 -17 0 -18 40 -27 46 -10 3 7 -2 27 -10 44 -20 38 -20 65 -1 81 8 7 15
22 15 34 0 12 4 26 10 32 5 5 11 25 12 44 3 31 0 35 -23 38 -14 2 -36 -6 -51
-17z"/>
<path d="M4175 10780 c-3 -5 -1 -10 4 -10 6 0 11 5 11 10 0 6 -2 10 -4 10 -3
0 -8 -4 -11 -10z"/>
<path d="M4180 10744 c0 -8 5 -12 10 -9 6 3 10 10 10 16 0 5 -4 9 -10 9 -5 0
-10 -7 -10 -16z"/>
<path d="M4142 10739 c2 -6 8 -10 13 -10 5 0 11 4 13 10 2 6 -4 11 -13 11 -9
0 -15 -5 -13 -11z"/>
<path d="M4200 10673 c0 -30 9 -27 15 6 2 11 0 21 -6 21 -5 0 -9 -12 -9 -27z"/>
<path d="M3886 10672 c-8 -14 -16 -101 -10 -117 11 -29 20 -6 22 59 3 62 0 76
-12 58z"/>
<path d="M15710 10598 c0 -30 24 -120 39 -144 9 -16 10 -12 7 21 -10 89 -46
187 -46 123z"/>
<path d="M3677 10465 c-6 -35 -4 -40 10 -23 6 7 7 22 3 33 -6 17 -8 15 -13
-10z"/>
<path d="M4871 10454 c0 -11 3 -14 6 -6 3 7 2 16 -1 19 -3 4 -6 -2 -5 -13z"/>
<path d="M15621 10448 c1 -13 5 -36 9 -53 7 -29 8 -29 10 -5 3 25 3 58 1 73
-3 18 -21 5 -20 -15z"/>
<path d="M3900 10425 c-9 -11 -10 -22 -3 -38 9 -20 11 -19 15 16 5 42 5 42
-12 22z"/>
<path d="M3646 10324 c-9 -24 -7 -64 3 -64 11 0 21 25 21 56 0 27 -15 32 -24
8z"/>
<path d="M3890 10273 c0 -41 3 -54 10 -43 13 20 13 100 0 100 -6 0 -10 -26
-10 -57z"/>
<path d="M15447 10293 c-12 -12 -7 -41 8 -46 19 -8 28 8 20 33 -6 20 -17 25
-28 13z"/>
<path d="M15789 10288 c-6 -10 -7 -89 -2 -118 6 -33 6 -34 13 -10 12 38 11
130 0 130 -5 0 -11 -1 -11 -2z"/>
<path d="M4770 10255 c-6 -15 -13 -32 -16 -36 -3 -5 -3 -9 0 -9 9 0 38 61 32
67 -3 3 -10 -7 -16 -22z"/>
<path d="M3640 10193 c0 -18 5 -33 10 -33 13 0 13 30 0 50 -7 11 -10 7 -10
-17z"/>
<path d="M4813 10158 c-5 -25 -5 -45 0 -47 15 -6 26 13 29 48 4 51 -19 50 -29
-1z"/>
<path d="M4247 10174 c-8 -9 -7 -104 2 -189 5 -51 9 -60 26 -60 18 0 20 6 17
45 -2 25 -8 63 -12 85 -6 25 -5 42 1 46 16 10 6 73 -11 77 -9 1 -19 0 -23 -4z"/>
<path d="M4714 10145 c-23 -36 -14 -38 14 -4 13 16 19 29 13 29 -6 0 -18 -11
-27 -25z"/>
<path d="M4044 10106 c-3 -8 -4 -25 -2 -38 3 -17 5 -13 9 15 5 38 2 47 -7 23z"/>
<path d="M15560 9949 c0 -23 -7 -47 -15 -55 -8 -9 -15 -25 -15 -36 0 -21 0
-21 24 1 14 13 25 31 25 40 0 9 4 33 7 54 5 30 3 37 -10 37 -12 0 -16 -10 -16
-41z"/>
<path d="M4282 9845 c1 -19 -4 -41 -11 -49 -14 -17 -5 -62 14 -70 7 -2 16 -27
20 -55 4 -28 11 -53 16 -56 12 -8 0 224 -12 247 -15 29 -28 21 -27 -17z"/>
<path d="M4835 9656 c-4 -19 -4 -43 -1 -53 3 -10 6 -44 7 -75 2 -58 15 -77 23
-35 3 12 4 40 3 62 -2 22 3 54 10 71 11 27 10 34 -6 48 -25 23 -29 20 -36 -18z"/>
<path d="M15396 9528 c-34 -44 -20 -60 16 -18 15 19 28 38 28 42 0 17 -20 6
-44 -24z"/>
<path d="M3330 9497 c0 -20 5 -39 10 -42 21 -13 11 -71 -16 -94 -21 -18 -24
-25 -13 -31 7 -5 17 -6 21 -4 4 3 8 -28 8 -68 0 -63 -4 -79 -25 -108 -14 -19
-25 -40 -25 -46 0 -19 -45 -64 -63 -64 -9 0 -19 4 -22 10 -7 12 19 91 41 126
13 18 14 28 6 36 -8 8 -23 -1 -56 -34 -62 -63 -80 -101 -71 -152 4 -23 7 -52
7 -66 0 -28 26 -63 40 -54 5 3 15 -1 21 -9 7 -8 21 -17 32 -19 29 -6 90 27
115 62 12 17 25 28 30 25 11 -7 21 42 16 80 -5 34 -9 135 -6 150 1 6 2 67 1
136 0 119 -2 129 -26 164 l-25 38 0 -36z"/>
<path d="M15367 9434 c-4 -4 -7 -14 -7 -23 0 -11 3 -12 11 -4 6 6 10 16 7 23
-2 6 -7 8 -11 4z"/>
<path d="M15415 9420 c-3 -5 -1 -10 4 -10 6 0 11 5 11 10 0 6 -2 10 -4 10 -3
0 -8 -4 -11 -10z"/>
<path d="M15390 9310 c0 -5 5 -10 10 -10 6 0 10 -6 10 -14 0 -8 7 -16 15 -20
22 -8 18 17 -5 37 -23 20 -30 21 -30 7z"/>
<path d="M15480 9270 c-8 -5 -11 -12 -8 -16 10 -9 38 3 38 16 0 12 -10 13 -30
0z"/>
<path d="M15401 9232 c-8 -18 -11 -35 -8 -38 8 -9 29 35 25 54 -2 12 -8 7 -17
-16z"/>
<path d="M17450 9235 c0 -8 4 -15 10 -15 5 0 7 7 4 15 -4 8 -8 15 -10 15 -2 0
-4 -7 -4 -15z"/>
<path d="M3276 9202 c-10 -11 -16 -31 -14 -44 3 -22 5 -21 21 10 22 41 18 61
-7 34z"/>
<path d="M17440 9178 c0 -19 2 -20 10 -8 13 19 13 30 0 30 -5 0 -10 -10 -10
-22z"/>
<path d="M15660 9166 c-12 -34 -12 -36 0 -36 16 0 33 41 21 53 -7 7 -13 2 -21
-17z"/>
<path d="M17350 9140 c0 -22 5 -40 10 -40 6 0 11 3 11 8 9 58 8 72 -6 72 -11
0 -15 -11 -15 -40z"/>
<path d="M15410 9148 c0 -19 2 -20 10 -8 13 19 13 30 0 30 -5 0 -10 -10 -10
-22z"/>
<path d="M14965 9078 c-7 -17 8 -52 32 -78 7 -8 28 -37 45 -63 17 -26 33 -46
36 -43 3 3 -1 12 -8 21 -7 8 -10 15 -7 15 8 0 -62 131 -79 149 -11 13 -14 12
-19 -1z"/>
<path d="M3404 9046 c-8 -22 3 -33 18 -18 9 9 9 15 0 24 -9 9 -13 7 -18 -6z"/>
<path d="M3440 8988 c0 -13 4 -29 9 -37 13 -20 24 4 17 35 -8 30 -26 32 -26 2z"/>
<path d="M17376 8969 c-8 -42 -7 -57 3 -39 14 25 22 70 12 70 -4 0 -11 -14
-15 -31z"/>
<path d="M3362 8858 c-16 -19 -21 -97 -7 -98 13 0 27 54 23 88 -3 22 -5 23
-16 10z"/>
<path d="M3682 8748 c2 -12 8 -23 14 -25 7 -2 10 6 7 22 -6 30 -26 34 -21 3z"/>
<path d="M3327 8704 c-15 -15 -6 -54 14 -64 19 -11 20 -9 17 26 -3 36 -16 52
-31 38z"/>
<path d="M3721 8602 c2 -24 7 -46 12 -49 10 -6 4 73 -7 84 -4 4 -6 -12 -5 -35z"/>
<path d="M3394 8307 c-7 -20 -2 -47 11 -50 14 -3 19 43 6 56 -7 7 -12 6 -17
-6z"/>
<path d="M3717 8073 c-11 -10 -8 -43 3 -43 15 0 24 30 13 41 -5 5 -12 6 -16 2z"/>
<path d="M7250 6141 c0 -8 52 -23 59 -16 1 2 0 8 -4 14 -8 13 -55 15 -55 2z"/>
<path d="M7400 5789 c0 -5 5 -7 10 -4 6 3 10 8 10 11 0 2 -4 4 -10 4 -5 0 -10
-5 -10 -11z"/>
<path d="M7710 5711 c0 -6 6 -11 14 -11 8 0 23 -3 33 -6 12 -5 15 -4 8 3 -15
16 -55 26 -55 14z"/>
<path d="M7467 5623 c-11 -63 -7 -100 14 -126 11 -15 25 -27 30 -27 14 0 10
37 -6 54 -8 8 -19 26 -25 40 -8 22 -7 26 9 26 24 0 45 25 37 45 -3 8 -16 15
-30 15 -19 0 -26 -6 -29 -27z"/>
<path d="M7410 5601 c0 -13 26 -32 33 -24 8 7 -11 33 -24 33 -5 0 -9 -4 -9 -9z"/>
<path d="M7780 5560 c0 -5 5 -10 10 -10 6 0 10 5 10 10 0 6 -4 10 -10 10 -5 0
-10 -4 -10 -10z"/>
<path d="M8022 5513 c2 -10 13 -18 25 -18 11 -1 28 -7 37 -14 28 -24 31 -2 3
24 -31 30 -70 34 -65 8z"/>
<path d="M7610 5466 c0 -9 7 -16 16 -16 17 0 14 22 -4 28 -7 2 -12 -3 -12 -12z"/>
<path d="M4815 5451 c-5 -8 2 -23 19 -39 20 -20 26 -23 26 -10 0 25 -35 64
-45 49z"/>
<path d="M7440 5454 c1 -21 20 -38 47 -41 15 -2 46 -6 68 -9 35 -5 38 -4 25 9
-8 8 -36 19 -61 26 -26 6 -54 13 -63 17 -9 3 -16 2 -16 -2z"/>
<path d="M13220 5435 c0 -8 7 -15 15 -15 8 0 15 7 15 15 0 8 -7 15 -15 15 -8
0 -15 -7 -15 -15z"/>
<path d="M13190 5331 c0 -5 7 -14 15 -21 12 -10 19 -10 28 -1 9 9 9 14 -3 21
-19 12 -40 13 -40 1z"/>
<path d="M7760 5310 c0 -11 50 -34 58 -26 2 3 2 12 -1 21 -7 17 -57 21 -57 5z"/>
<path d="M4625 5269 c-4 -11 -5 -22 -3 -23 64 -47 108 -61 108 -33 -1 11 -79
77 -93 77 -3 0 -9 -9 -12 -21z"/>
<path d="M12890 5200 c0 -5 5 -10 10 -10 6 0 10 5 10 10 0 6 -4 10 -10 10 -5
0 -10 -4 -10 -10z"/>
<path d="M4867 5124 c-14 -14 -7 -35 11 -32 9 2 17 10 17 17 0 16 -18 25 -28
15z"/>
<path d="M14230 4938 c-59 -27 -82 -47 -75 -68 4 -12 -1 -19 -15 -23 -17 -4
-30 -37 -14 -37 17 0 46 25 54 46 6 14 22 30 37 37 40 17 83 48 83 58 0 13
-20 10 -70 -13z"/>
<path d="M14016 4785 c-65 -45 -116 -91 -116 -104 0 -29 33 -20 82 23 44 38
58 45 81 40 26 -5 27 -4 17 20 -6 16 -6 27 0 31 14 9 12 25 -2 24 -7 0 -35
-15 -62 -34z"/>
<path d="M14447 4719 c-9 -6 -17 -21 -17 -35 0 -46 -17 -65 -53 -59 -24 5 -37
1 -54 -15 -13 -11 -23 -25 -23 -30 0 -13 37 -13 45 -1 3 6 18 6 38 0 45 -13
87 5 114 47 17 27 20 40 13 59 -12 31 -40 46 -63 34z"/>
<path d="M13856 4651 c-10 -11 -31 -25 -47 -32 -25 -10 -28 -14 -17 -25 7 -7
24 -15 38 -17 18 -3 25 -10 25 -28 0 -20 6 -25 33 -27 23 -2 32 1 32 12 0 8
-6 19 -12 23 -7 4 -19 18 -26 31 -11 20 -11 27 2 47 9 14 16 27 16 30 0 12
-28 3 -44 -14z"/>
<path d="M10967 4612 c-2 -20 -2 -41 1 -46 7 -13 22 16 22 46 0 42 -17 42 -23
0z"/>
<path d="M13585 4494 c-108 -56 -138 -84 -133 -123 1 -14 -1 -32 -6 -39 -12
-19 -1 -25 29 -18 18 5 25 12 21 22 -6 17 27 54 49 54 8 0 24 -5 35 -12 24
-16 41 -1 18 16 -16 11 -11 19 44 75 34 34 57 65 52 69 -5 4 -54 -15 -109 -44z"/>
<path d="M14107 4453 c-13 -12 -7 -33 8 -33 8 0 15 9 15 20 0 20 -11 26 -23
13z"/>
<path d="M14005 4390 c-8 -13 -143 -115 -202 -154 -25 -16 -55 -38 -68 -50
-36 -33 -43 -37 -179 -106 -128 -65 -178 -102 -157 -115 14 -8 71 3 71 14 0
13 102 56 125 53 12 -2 32 7 46 21 13 13 51 43 84 68 33 24 101 75 150 114 50
39 114 87 143 105 48 31 52 35 36 47 -21 16 -41 17 -49 3z"/>
<path d="M13353 4344 c-19 -14 -19 -15 12 -20 54 -9 60 -8 60 5 0 21 -50 32
-72 15z"/>
<path d="M13191 4247 c-13 -16 -5 -27 20 -27 24 0 35 20 18 31 -19 12 -25 11
-38 -4z"/>
<path d="M13128 4203 c-28 -4 -40 -32 -15 -35 23 -2 32 -5 58 -16 46 -19 63
-18 67 2 3 12 -5 26 -19 37 -24 18 -37 20 -91 12z"/>
<path d="M12966 4098 l-26 -32 37 -18 c20 -10 43 -18 50 -18 19 0 16 17 -4 24
-11 5 -13 10 -7 14 17 11 23 39 11 51 -18 18 -32 13 -61 -21z"/>
<path d="M13060 4115 c0 -8 7 -15 15 -15 8 0 15 7 15 15 0 8 -7 15 -15 15 -8
0 -15 -7 -15 -15z"/>
<path d="M12882 4068 c2 -12 9 -23 16 -26 18 -6 15 35 -4 42 -11 4 -15 0 -12
-16z"/>
<path d="M11280 4061 c-39 -11 -32 -36 10 -34 19 1 37 -2 40 -6 9 -15 70 0 70
16 0 10 -7 14 -18 11 -10 -3 -27 1 -37 8 -20 15 -27 16 -65 5z"/>
<path d="M8906 4051 c-39 -8 -44 -29 -9 -38 43 -11 193 -7 206 6 16 16 66 14
83 -4 18 -17 66 -20 95 -5 56 31 -22 50 -201 48 -80 0 -158 -3 -174 -7z"/>
<path d="M10570 4040 c-30 -7 -40 -40 -12 -40 21 0 58 35 45 42 -4 3 -19 2
-33 -2z"/>
<path d="M11025 4030 c-3 -5 -1 -10 4 -10 6 0 11 5 11 10 0 6 -2 10 -4 10 -3
0 -8 -4 -11 -10z"/>
<path d="M9605 4020 c-11 -17 18 -21 137 -19 68 1 135 -2 151 -6 21 -6 27 -4
27 9 0 9 -8 16 -17 17 -103 6 -294 5 -298 -1z"/>
<path d="M10055 4020 c-3 -5 -2 -10 4 -10 5 0 13 5 16 10 3 6 2 10 -4 10 -5 0
-13 -4 -16 -10z"/>
<path d="M10670 4020 c0 -5 11 -10 25 -10 14 0 25 5 25 10 0 6 -11 10 -25 10
-14 0 -25 -4 -25 -10z"/>
<path d="M9365 4010 c-3 -5 0 -10 8 -10 8 0 20 -7 27 -15 14 -17 75 -20 85 -5
3 6 17 10 30 10 29 0 41 16 19 24 -26 10 -162 7 -169 -4z"/>
<path d="M13296 3959 c-32 -25 -33 -39 -3 -39 28 1 72 34 63 49 -11 17 -30 13
-60 -10z"/>
<path d="M8900 3930 c0 -5 6 -10 14 -10 8 0 23 -3 33 -6 16 -5 16 -4 -1 10
-22 18 -46 21 -46 6z"/>
<path d="M12515 3919 c-9 -28 9 -46 29 -30 12 10 13 16 3 32 -15 25 -24 24
-32 -2z"/>
<path d="M8786 3921 c8 -9 239 -90 268 -95 6 -1 21 -7 33 -14 12 -7 29 -9 37
-6 9 4 16 1 16 -6 0 -10 4 -9 16 1 12 10 13 14 2 20 -15 8 -99 24 -110 21 -5
-1 -8 2 -8 7 0 4 -21 14 -47 20 -27 7 -55 16 -65 21 -16 9 -129 40 -144 40 -4
0 -4 -4 2 -9z"/>
<path d="M8990 3922 c0 -10 85 -35 102 -30 6 2 -11 12 -39 21 -59 19 -63 20
-63 9z"/>
<path d="M12440 3900 c0 -5 7 -10 15 -10 8 0 15 5 15 10 0 6 -7 10 -15 10 -8
0 -15 -4 -15 -10z"/>
<path d="M12470 3866 c0 -9 5 -16 10 -16 6 0 10 4 10 9 0 6 -4 13 -10 16 -5 3
-10 -1 -10 -9z"/>
<path d="M9205 3860 c-3 -5 1 -10 9 -10 9 0 16 5 16 10 0 6 -4 10 -9 10 -6 0
-13 -4 -16 -10z"/>
<path d="M13033 3815 l-28 -24 36 -1 c25 0 42 7 59 25 l23 25 -31 0 c-19 0
-42 -10 -59 -25z"/>
<path d="M12181 3811 c-22 -22 -28 -75 -12 -100 15 -23 31 -2 31 39 0 34 4 41
25 46 14 4 24 11 22 18 -6 20 -45 18 -66 -3z"/>
<path d="M9405 3799 c-5 -7 6 -12 67 -24 10 -2 20 1 23 6 5 7 -6 12 -67 24
-10 2 -20 -1 -23 -6z"/>
<path d="M9270 3776 c0 -9 30 -14 35 -6 4 6 -3 10 -14 10 -12 0 -21 -2 -21 -4z"/>
<path d="M9325 3771 c-2 -5 4 -11 15 -14 11 -3 20 -2 20 3 0 12 -28 21 -35 11z"/>
<path d="M12938 3774 c-4 -3 -18 -7 -32 -8 -14 -2 -38 -12 -53 -22 -15 -10
-54 -31 -85 -47 -62 -30 -75 -50 -30 -46 15 2 33 0 40 -5 9 -5 27 2 50 19 20
15 61 42 90 61 29 19 50 39 47 44 -7 11 -19 13 -27 4z"/>
<path d="M12036 3743 c13 -56 34 -60 34 -8 0 28 -4 35 -20 35 -17 0 -19 -4
-14 -27z"/>
<path d="M12984 3665 c-7 -18 3 -35 21 -35 15 0 28 27 19 41 -8 14 -34 11 -40
-6z"/>
<path d="M12518 3644 c-3 -3 -4 -14 -1 -25 6 -20 37 -26 48 -9 13 21 -30 52
-47 34z"/>
</g>
</svg>
